<svg fill="none" height="36" viewBox="0 0 36 36" width="36" xmlns="http://www.w3.org/2000/svg"><path d="m22.4405 10h-8.881c-1.9659 0-3.5595 1.5936-3.5595 3.5595v8.881c0 1.9659 1.5936 3.5595 3.5595 3.5595h8.881c1.9659 0 3.5595-1.5936 3.5595-3.5595v-8.881c0-1.9659-1.5936-3.5595-3.5595-3.5595z" fill="#1c1c1c"/><g fill="#fff"><path d="m17.5115 24.0074c-.4773-.1707-.5797-.4027-.7754-1.7622-.2278-1.5802-.2774-2.5584-.1456-2.8682.1749-.4107.6496-.6438 1.3136-.6464.6586-.0027 1.1376.2325 1.3136.6464.1322.3093.0826 1.288-.1451 2.8682-.1547 1.104-.24 1.383-.4533 1.5707-.2934.2597-.7094.3317-1.104.192zm-2.0389-1.6214c-1.648-.8106-2.704-2.1824-3.088-4.0074-.096-.471-.112-1.5947-.0213-2.0267.24-1.16.6986-2.0672 1.4613-2.8693 1.0987-1.1584 2.512-1.7707 4.0853-1.7707 1.5574 0 2.9654.6011 4.0374 1.7248.816.848 1.2746 1.7456 1.5093 2.928.08.3936.08 1.4667.0053 1.9093-.2453 1.3995-1.024 2.6742-2.16 3.5307-.4053.3061-1.3973.8405-1.5573.8405-.0587 0-.064-.0608-.0373-.3066.048-.3947.096-.4768.32-.5707.3573-.1493.9653-.5824 1.3386-.9568.6454-.64 1.12-1.4773 1.3387-2.3573.1387-.5494.1227-1.7707-.032-2.336-.4853-1.7974-1.952-3.1947-3.7493-3.568-.5227-.1067-1.472-.1067-2 0-1.8187.3733-3.3227 1.84-3.7814 3.6853-.1226.5013-.1226 1.7227 0 2.224.304 1.2213 1.0934 2.3413 2.128 3.008.2027.1333.448.272.5494.3147.224.096.272.176.3146.5706.0267.24.0214.3094-.0373.3094-.0373 0-.3093-.1174-.5973-.256zm.0213-2.1696c-.5546-.4426-1.0453-1.2277-1.248-1.9978-.1226-.4651-.1226-1.3494.0054-1.8134.336-1.2522 1.2586-2.2229 2.5386-2.6789.4374-.1547 1.408-.1893 1.9467-.0704 1.856.4133 3.1733 2.272 2.9173 4.1157-.1013.743-.3573 1.3531-.8106 1.92-.224.2864-.768.767-.864.767-.016 0-.032-.1814-.032-.4022v-.4032l.2773-.3306c1.0453-1.2523.9707-3.0016-.1707-4.1494-.4426-.4469-.9546-.7093-1.616-.8304-.4266-.0789-.5173-.0789-.9653-.0053-.68.1109-1.2069.3744-1.6747.8373-1.1466 1.136-1.2213 2.8944-.176 4.1478l.2752.3306v.4054c0 .224-.0176.4053-.0394.4053-.0214 0-.176-.1067-.3414-.24zm1.8507-2.1776c-.4747-.2208-.7307-.6373-.736-1.1802 0-.488.272-.9136.7413-1.1627.2987-.1568.8267-.1568 1.1254.0011.3253.169.592.497.6933.8394.3093 1.0518-.8053 1.9734-1.8133 1.5024z"/><path d="m17.9942 18.246c.7346 0 1.3301-.5956 1.3301-1.3302s-.5955-1.3301-1.3301-1.3301-1.3301.5955-1.3301 1.3301.5955 1.3302 1.3301 1.3302z"/><path d="m18.1216 18.761c.0923.0123.2757.0363.4453.0907.1707.0533.3254.137.4459.2229.1173.0853.2027.1739.256.2816s.08.2357.096.4453c.0107.2102.0107.5014-.0373 1.0453-.048.5424-.144 1.3376-.2187 1.847-.0747.512-.128.736-.1973.9013-.0694.1707-.16.2827-.2614.3627-.1013.08-.2186.128-.3306.1546-.112.0267-.2134.0267-.3094.0267s-.1866 0-.3093-.0267c-.1227-.0266-.2827-.0746-.4-.1706-.1227-.096-.2027-.2347-.2667-.416-.064-.1814-.112-.4-.176-.8374-.064-.4373-.1493-1.088-.2026-1.584-.0534-.4959-.0747-.8373-.079-1.0666-.0053-.2293.0054-.3429.032-.4533.0267-.1067.0694-.208.128-.2934.0587-.0853.1355-.16.2134-.2186.0762-.0587.1546-.1014.2485-.1344.0928-.0374.2043-.0694.3413-.096.1387-.0267.2987-.0534.3808-.064.0822-.0123.0822-.0123.1739 0z"/></g></svg>