<svg fill="none" height="52" viewBox="0 0 52 52" width="52" xmlns="http://www.w3.org/2000/svg"><circle cx="26" cy="26" fill="#fff" opacity=".3" r="25" stroke="#d9d9d9"/><g clip-rule="evenodd" fill="#000" fill-rule="evenodd"><path d="m9.60417 25.9656c.2408 0 .34414.2408.34414.6193v2.6147c0 1.3763-.68829 1.4109-.96345 1.2732-.34415-.172-.41288-.7572-.41288-1.3073v-2.5806c0-.3785.13771-.6193.37851-.6193v-.1377h-1.4107v.1377c.24081 0 .34415.2408.34415.6193v2.856c0 .516.30978 1.342 1.03219 1.4105.7224.0346 1.20427-.4129 1.20427-1.6859v-2.5806c0-.3785.1374-.6193.3439-.6193v-.1377h-.86013z"/><path d="m12.1159 25.8279h-1.342v.1377c.2408 0 .3785.2408.3785.6193v3.372c0 .3785-.1374.619-.3785.619v.1377h1.4451c.3098 0 .6193-.172.9291-.5505.4816-.6537.6193-2.0642.3785-2.9245-.2408-1.1009-.7914-1.4107-1.4107-1.4107zm.6883 3.7159c-.0687.3438-.1721.9634-.7914.9634-.1721 0-.1721-.069-.1721-.4475v-3.5781c0-.3786 0-.4129.1721-.4129.2408 0 .4129-.0344.6193.3785.3439.6537.3439 2.2362.1721 3.0966z"/><path d="m23.1603 23.3161h-.516l.6881-1.7202h1.342v1.7202h-.6194v.2755h3.7503s0 0 0-.2755h-.6191s0 0 0-2.5116h.9289c.3441 0 .6193-.3095.6193-.5849v-2.4083c0-.2064-.2411-.5503-.654-.5503h-4.0254v.2752h.4819l-2.2362 5.7802h-.4819v.2754h1.3418v-.2757zm4.0257-5.7802h.4472c.1031 0 .1718.0687.1718.1721v2.6493c0 .1031-.0687.1718-.1718.1718h-.4472v-1.3417-.3098zm-1.6172 0h.7224v5.7802h-.7224zm-.8944.5506v3.1996h-1.273z"/><path d="m15.0061 30.5075c-.2064-.0347-.2408-.1378-.2408-.4821v-1.6513c.4816.0341.585.1716.7224 1.0666h.0688v-2.3744h-.0688c-.1374.8949-.2408.998-.7224 1.0665v-1.6512c0-.3786.0344-.4473.1721-.4129h.3785c.6883.0343.7227.9976.757 1.2389h.1034v-1.4797h-2.4429v.1377c.2064 0 .3441.2408.3441.6193v3.372c0 .3785-.1377.619-.3441.619v.1377h2.4772l.1721-1.4794h-.1033c-.3098 1.032-.654 1.3417-1.2733 1.2733z"/><path d="m7.19609 24.83-1.44506-.0343v.2751h.44724l-2.09874 5.4364h-.48185v.2751h1.27298v-.2751h-.51621l.65367-1.6172h1.27299v1.6172h-.58495v.2751h2.03001v-.2751h-.55033v-5.6772zm-.89473 3.8533h-1.16989l1.16989-3.0275z"/><path d="m33.1037 24.7957h-2.2708v.2751h.5506v5.4364h-.6193v.2751h2.0987s0-.0346 0-.2751h-.5849s0 0 0-2.3744h.8947c.3095 0 .5506-.3093.5506-.516v-2.3049c-.0003-.1724-.207-.5162-.6196-.5162zm-.2411 2.9247c0 .1031-.0687.1716-.1718.1716h-.4128v-1.2728-.3098-1.2386h.4128c.1031 0 .1718.0687.1718.1375z"/><path d="m37.3698 28.6489c.241 0 .3443.2413.3443.6196v.9288c0 .1031 0 .2752-.172.3785-.1031.069-.2408.069-.3442.069-.0687 0-.1718 0-.2408-.1036-.2064-.1377-.3095-.4129-.4128-.8945-.0688-.3098-.1031-.8257-.1031-1.3419 0-.5506.0343-1.0666.1031-1.3764.1033-.4816.2064-.7567.4128-.8942.0688-.0687.1719-.1033.2408-.1033.2752 0 .8948.4816 1.1012 1.5481h.1031v-1.7202h-.1031c-.0687.1377-.0687.3785-.3098.3098-.1377-.0688-.4126-.2752-.7914-.3098-.2751 0-.5849.1377-.8601.4472-.4129.4129-.6193 1.2389-.6193 2.0988 0 .8257.2064 1.6517.6193 2.0987.2752.2752.585.4475.8601.4475.1377 0 .2752 0 .4129-.0346.1033-.0341.6883-.1716.7914-.3439v-1.2043c0-.3785.1377-.6195.3787-.6195v-.1373h-1.4109v.1375z"/><path d="m40.8454 25.9656c.241 0 .3441.2408.3441.6193v2.6147c0 1.3763-.688 1.4109-.9632 1.2732-.3441-.172-.4129-.7572-.4129-1.3073v-2.5806c0-.3785.1377-.6193.3785-.6193v-.1377h-1.4104v.1377c.2408 0 .3439.2408.3439.6193v2.856c0 .516.3098 1.342 1.0324 1.4105.7224.0346 1.2043-.4129 1.2043-1.6859v-2.5806c0-.3785.1377-.6193.3439-.6193v-.1377h-.8606z"/><path d="m43.3569 30.5075c-.241-.0347-.241-.1378-.241-.4821v-1.6513c.4818.0341.5506.1716.6883 1.0666h.1031v-2.3744h-.1031c-.1377.8949-.2065.998-.6883 1.0665v-1.6512c0-.3786.0346-.4473.172-.4129h.3786c.6882.0343.7224.9976.757 1.2389h.0687v-1.4797h-2.4431v.1377c.241 0 .3785.2408.3785.6193v3.372c0 .3785-.1375.619-.3785.619v.1377h2.4772l.2065-1.4794h-.1378c-.3092 1.032-.619 1.3417-1.2381 1.2733z"/><path d="m44.802 25.8279v1.445h.1031c.0346-.172.0346-.5159.241-.8944.2408-.4132.516-.3098.6191-.3098v3.8879c0 .3785-.1377.6191-.3439.6191v.1377h1.3761v-.1377c-.2064 0-.3442-.2408-.3442-.6191v-3.8879c.1031 0 .3786-.1034.6194.3098.2064.3785.2064.7221.2408.8944h.0687v-1.445z"/><path d="m18.6529 29.1655-.8944-3.3376h-1.2043v.1377c.3098 0 .4129.1033.4129.6193v3.372c0 .3785-.1031.619-.3785.619v.1377h.9634v-.1377c-.2408 0-.3785-.2408-.3785-.619v-3.5097l1.1697 4.2664h.1033l1.2043-4.2664v3.5097c0 .3785-.1378.619-.3786.619v.1377h1.5138v-.1377c-.2408 0-.3785-.2408-.3785-.619v-3.372c0-.3785.1375-.6193.3785-.6193v-.1377h-1.1699z"/><path d="m26.8758 30.3005-.8255-1.9956c.2408-.1031.4473-.2752.585-.6537.1718-.4475.0687-1.0322-.1031-1.342-.2411-.3785-.6537-.4816-.9979-.4816h-1.3417v.1377c.2065 0 .3439.2408.3439.6194v3.3719c0 .3785-.1374.6191-.3439.6191h.0344v.1377h1.342v-.1377c-.2065 0-.3439-.2408-.3439-.6191v-1.514h.1031l.8944 2.2708h.8601v-.1377c-.0692.0002-.1035.0349-.2069-.2752zm-.8945-2.649c-.1377.6536-.5505.5505-.757.5505v-1.8233c0-.2067.1031-.3098.1718-.3098.3442-.0687.4819.1721.5504.4475.0692.1716.1038.7912.0348 1.1351z"/><path d="m23.6421 30.232-1.1009-4.4041h-.1034l-1.0665 4.2664c-.1033.4129-.2064.4816-.3095.4816v.1377h.8601v-.1377c-.3098 0-.4129-.2408-.3098-.619l.1377-.6537h.9978l.2065.8252c.0687.3788-.2065.4475-.3785.4475v.1377h1.3419v-.1377c-.069 0-.2067-.0346-.2754-.3439zm-1.8236-1.2042.4129-1.7895.4473 1.7895z"/><path d="m34.0669 25.9656c.2752 0 .4129.2408.4129.6193v3.372c0 .3785-.1377.619-.4129.619v.1377h1.4794v-.1377c-.2751 0-.3785-.2408-.3785-.619v-3.372c0-.3785.1031-.6193.3785-.6193v-.1377h-1.4794z"/><path d="m28.6308 27.7547c-.5506-.2752-.7224-.6537-.7224-.963 0-.1721.0688-.7916.4819-.7916.619 0 .8255.9632.9288 1.3417h.1031v-1.5825h-.1031c-.0687.1377-.0687.2408-.172.2408-.2409 0-.4473-.2408-.9289-.2408-.4129 0-.8945.3785-.8945 1.3417 0 .4475.1377 1.0665.6881 1.4451.757.5505 1.0324.7572 1.0324 1.1696 0 .1721-.0687.895-.6883.895-.4472 0-.7568-.7227-.7914-.9981l-.1031-.516h-.1033v1.7549h.1033c0-.1377.0344-.2408.0688-.2408.2408 0 .6536.2408.9288.2408 1.0322 0 1.204-.9289 1.204-1.4105 0-.6883-.3095-1.3081-1.0322-1.6863z"/><path d="m3.7207 34.1543c.20644 0 .2408-.0685.27517-.2408l.2408-1.1696c0-.0347.03437-.069.03437-.1036 0-.1031-.10335-.1372-.20669-.1372v-.069h.68829v.069c-.20644 0-.2408.0684-.27517.2408l-.2408 1.1696v.1031c0 .069.03437.069.17207.069h.17183c.20643 0 .30978-.069.37851-.2752h.03436l-.06873.3785h-1.20401z"/><path d="m5.57863 33.3972c.03437-.1377.13771-.3444.30978-.3444.10335 0 .17208.069.17208.1377 0 .1721-.13771.2067-.24081.2067zm.51622.6883c-.06898.0341-.10334.0341-.17207.0341-.30978 0-.37851-.1716-.37851-.3785 0-.1031 0-.2062.03436-.2752h.27517c.20644 0 .41287-.0341.41287-.2408 0-.1721-.17182-.2751-.34389-.2751-.44724 0-.61931.4821-.61931.8257 0 .3098.17182.4475.41287.4475.17207 0 .30953-.0346.37851-.069z"/><path d="m7.67776 33.2595c0-.0346 0-.069 0-.1031 0 0 0-.0346-.03437-.0346-.03436 0-.13745.1031-.20643.1721h-.03462c.06873-.1036.27517-.3444.37851-.3444.06873 0 .10335.0689.10335.1377v.172l-.06873.3439v.0347c.06873-.2062.27516-.6883.55033-.6883.10334 0 .17207.0689.17207.172 0 .0685-.03436.1031-.03436.1721l-.06873.3093v.0346c.10334-.2062.30978-.6883.58495-.6883.10309 0 .1377.069.1377.1721v.1721l-.17207.6536v.0685c0 .0346 0 .0346.03437.0346.03436 0 .1377-.1031.20643-.172l.03437.0346c-.06873.0685-.27517.3098-.37851.3098-.06873 0-.10335-.0347-.10335-.1036 0-.0685 0-.1377 0-.1716l.17208-.6537c0-.0346 0-.069 0-.1036 0-.0341 0-.0685-.06873-.0685-.17208 0-.51622.8258-.55034 1.0666h-.20643l.17182-.8945c0-.0346 0-.069 0-.1036 0-.0341 0-.0685-.03436-.0685-.17208 0-.44724.516-.58495 1.0666h-.20644z"/><path d="m9.74208 33.879c0-.2751.20643-.8257.48182-.8257.0688 0 .1031.1036.1031.1721 0 .3097-.2408.8603-.44722.8603-.06897 0-.1377-.0346-.1377-.2067zm.44722.069v.1716c0 .0346.0346.1036.1034.1036.1031 0 .3095-.2413.3785-.3098l-.0344-.0346c-.0687.069-.1721.1721-.2064.1721-.0344 0-.0344 0-.0344-.0346 0 0 0-.0347 0-.0685l.2064-.9635h-.2064l-.0344.1377c-.0346-.069-.0687-.172-.2064-.172-.37851 0-.61931.6882-.61931.9634 0 .1377.03436.3098.2408.3098.24081 0 .37851-.3098.44721-.4129z"/><path d="m11.2896 32.4686c.0688-.069.1031-.1031.1377-.1031.0344 0 .0688.0341.1031.1031l.1377.3093h-.1033l-.1721-.1716-.2751.1716h-.1031zm.2408 1.4448c-.0687.0685-.2751.3098-.3785.3098-.0687 0-.1031-.0347-.1031-.1036 0-.0685 0-.1377 0-.1716l.1377-.6883c.0344-.0346.0344-.069.0344-.1031 0-.0346-.0344-.0346-.0344-.0346-.0346 0-.172.1031-.2408.1721h-.0343c.1033-.1036.2751-.3444.4129-.3444.0687 0 .1033.069.1033.1377 0 .0346 0 .1031-.0346.1721l-.1375.6882v.0685c0 .0346 0 .0346.0344.0346s.1377-.1031.2064-.172z"/><path d="m12.4258 33.9133c-.1031.1031-.3096.3098-.4473.3098-.0687 0-.1033-.0346-.1033-.1036 0-.0685 0-.1377.0343-.1716l.1721-.8603h-.2408l.0344-.1031c.2408 0 .3785-.1031.4472-.3785h.0688l-.1034.3785h.3442v.1031h-.3442l-.1718.8603c0 .0341-.0344.0685-.0344.0685 0 .0346.0344.0346.0344.0346.0687 0 .2064-.1031.2752-.1721z"/><path d="m13.0103 33.2595c0-.0346 0-.069 0-.1031 0 0 0-.0346-.0344-.0346s-.1377.1031-.2064.1721h-.0344c.0687-.1036.2408-.3444.3785-.3444.0687 0 .1034.0689.1034.1377v.172l-.0347.1721c.0347-.1036.1721-.4821.3786-.4821.1033 0 .1377.069.1377.1377 0 .069-.0688.1377-.1377.1377-.0344 0-.0688-.0346-.1031-.0346-.069 0-.3098.3098-.4473.9981h-.2064z"/><path d="m14.1113 33.3972c0-.1377.1033-.3444.3095-.3444.1034 0 .1721.069.1721.1377 0 .1721-.1721.2067-.2752.2067zm.516.6883c-.0688.0341-.1377.0341-.1721.0341-.3439 0-.4129-.1716-.4129-.3785 0-.1031.0344-.2062.0344-.2752h.2752c.2064 0 .4472-.0341.4472-.2408 0-.1721-.1721-.2751-.3442-.2751-.4816 0-.6536.4821-.6536.8257 0 .3098.172.4475.4472.4475.1721 0 .2752-.0346.3442-.069z"/><path d="m16.1414 33.879c0-.2408.1721-.8257.4473-.8257.0687 0 .1377.069.1377.172 0 .2408-.2408.8604-.4816.8604-.0344 0-.1034-.0346-.1034-.2067zm.4475.069c-.0343.0341-.0343.1031-.0343.1716 0 .0346.0343.1036.1033.1036.1377 0 .3441-.2413.4129-.3098l-.0346-.0346c-.0688.069-.1719.172-.2408.172 0 0-.0344 0-.0344-.0346 0 0 0-.0346.0344-.0684l.3095-1.5826-.4473.0341v.069c.1034 0 .1721 0 .1721.1031v.1031l-.0687.4129c-.0344-.0685-.1034-.1377-.2408-.1377-.3439 0-.6193.6883-.6193.9634 0 .1377.0343.3098.2408.3098.2408 0 .4129-.3444.4472-.4475h.0344z"/><path d="m17.6209 33.3972c.0343-.1377.1377-.3444.3441-.3444.0687 0 .1375.069.1375.1377 0 .1721-.1375.2067-.2408.2067zm.5162.6883c-.0346.0341-.1034.0341-.1721.0341-.3098 0-.3785-.1716-.3785-.3785 0-.1031 0-.2062.0344-.2752h.2751c.2065 0 .4129-.0341.4129-.2408 0-.1721-.1377-.2751-.3095-.2751-.4819 0-.6537.4821-.6537.8257 0 .3098.1721.4475.4129.4475.1721 0 .3098-.0346.3785-.069z"/><path d="m19.9948 33.9134c-.0687.0685-.2408.3098-.3785.3098-.0687 0-.1034-.0347-.1034-.1036 0-.0685 0-.1377 0-.1716l.2752-1.2732c0-.0347 0-.0685 0-.1031 0-.1031-.0687-.1031-.2064-.1031l.0343-.069.4129-.0341-.3098 1.5825v.0685c0 .0346 0 .0346.0344.0346s.1377-.1031.2064-.1721z"/><path d="m20.5112 32.9847c.0688-.0346.1721-.1377.1721-.2408 0-.069-.1033-.0347-.1033-.1721 0-.0685.0687-.1377.172-.1377.0688 0 .1377.069.1377.1721 0 .1715-.2064.3097-.2751.3785z"/><path d="m21.4402 32.6748c0-.0347 0-.0685 0-.1031 0-.1031-.0688-.1031-.2065-.1031l.0344-.069.4472-.0341-.2751 1.3073c.1033-.2408.3441-.7226.5849-.7226.1033 0 .1721.069.1721.172 0 .0347-.0346.1031-.0346.1721l-.1378.6537c0 .0341-.0343.0685-.0343.0685 0 .0346.0343.0346.0343.0346.0688 0 .1721-.1031.2409-.1721l.0346.0346c-.069.0685-.2755.3098-.4129.3098-.0687 0-.1034-.0346-.1034-.1036 0-.0685 0-.1377.0344-.1716l.1377-.6536c0-.0346.0344-.069.0344-.1036 0-.0341-.0344-.0685-.0687-.0685-.2065 0-.5163.7914-.585 1.0665h-.2064z"/><path d="m22.8509 33.8442c0-.2408.1034-.7914.3785-.7914.1377 0 .1721.1036.1721.2752 0 .2413-.1034.8257-.3785.8257-.1031.0003-.1721-.1028-.1721-.3095zm.1721.3787c.4129 0 .6193-.4474.6193-.7913 0-.2752-.1033-.4821-.4129-.4821-.4129 0-.6193.4821-.6193.8257 0 .2411.1377.4477.4129.4477z"/><path d="m24.1585 33.2595c0-.0346.0343-.069.0343-.1031l-.0343-.0346c-.0688 0-.1721.1031-.2408.1721h-.0344c.0687-.1036.2752-.3444.4129-.3444.0687 0 .1033.0689.1033.1377 0 .0346 0 .1031-.0346.172l-.0344.1721c.0688-.1036.2065-.4821.4129-.4821.0687 0 .1034.069.1034.1377 0 .069-.0344.1377-.1034.1377s-.1033-.0346-.1377-.0346c-.0687 0-.2752.3098-.4129.9981h-.2067z"/><path d="m25.4999 33.9134c-.0687.0685-.2408.3098-.3785.3098-.0687 0-.1031-.0347-.1031-.1036 0-.0685 0-.1377 0-.1716l.2752-1.2732c0-.0347 0-.0685 0-.1031 0-.1031-.0688-.1031-.2065-.1031l.0344-.069.4129-.0341-.3096 1.5825v.0685c0 .0346 0 .0346.0344.0346s.1377-.1031.2067-.1721z"/><path d="m26.0158 33.8442c0-.2408.1377-.7914.4128-.7914.1034 0 .1719.1036.1719.2752 0 .2413-.1031.8257-.3785.8257-.1029.0003-.2062-.1028-.2062-.3095zm.2064.3787c.3785 0 .6193-.4474.6193-.7913 0-.2752-.1377-.4821-.4129-.4821-.4128 0-.6193.4821-.6193.8257.0003.2411.1034.4477.4129.4477z"/><path d="m27.3578 33.879c0-.2751.2064-.8257.4473-.8257.0346 0 .1377.0346.1377.1721 0 .2408-.2408.8603-.4816.8603-.0688 0-.1034-.0346-.1034-.2067zm.8258-.8944h-.2065v.1031c-.0346-.0685-.1033-.1377-.2064-.1377-.3785 0-.6537.6882-.6537.9634 0 .1377.0344.3098.2408.3098.2752 0 .4129-.3098.4473-.4475h.0346l-.1034.4475c-.0343.1377-.1031.447-.3095.447-.1718 0-.1377-.2062-.2752-.2062-.0687 0-.1377.0685-.1377.1377 0 .1031.1377.1377.3098.1377.4472 0 .5503-.2408.6191-.516z"/><path d="m28.7342 33.3972c.0343-.1377.1374-.3444.3439-.3444.0687 0 .1377.069.1377.1377 0 .1721-.1377.2067-.2408.2067zm.5159.6883c-.0346.0341-.1033.0341-.172.0341-.3096 0-.3786-.1716-.3786-.3785 0-.1031 0-.2062.0347-.2752h.2749c.2064 0 .4128-.0341.4128-.2408 0-.1721-.1377-.2751-.3095-.2751-.4818 0-.6537.4821-.6537.8257 0 .3098.1719.4475.4127.4475.172 0 .3097-.0346.3787-.069z"/><path d="m29.9382 33.2595c0-.0346 0-.069 0-.1031 0 0 0-.0346-.0344-.0346-.0343 0-.1718.1031-.241.1721h-.0344c.1034-.1036.2752-.3444.4129-.3444.0687 0 .1031.0689.1031.1377 0 .0346 0 .1031-.0344.172l-.0346.1721c.0687-.1036.2064-.4821.4129-.4821.0687 0 .1377.069.1377.1377 0 .069-.0687.1377-.1377.1377s-.0687-.0346-.1031-.0346c-.0687 0-.3098.3098-.4475.9981h-.2062z"/><path d="m31.3149 33.9135c-.0688.0685-.2752.3098-.4129.3098-.0687 0-.1033-.0346-.1033-.1036 0-.0685.0346-.1377.0346-.1716l.1377-.6883c0-.0346 0-.0689 0-.1031v-.0346c-.0688 0-.1721.1031-.2411.1721h-.0343c.0687-.1036.2751-.3444.4128-.3444.0344 0 .1031.069.1031.1377 0 .0346-.0343.1031-.0343.1721l-.1377.6883c0 .0341-.0347.0685-.0347.0685 0 .0346.0347.0346.0347.0346.0687 0 .1718-.1031.2408-.1721zm-.3101-1.3417c0-.0685.0688-.1377.1721-.1377.0687 0 .1377.069.1377.1377s-.0687.1377-.1377.1377c-.1031-.0003-.1721-.0692-.1721-.1377z"/><path d="m31.8994 33.3972c0-.1377.1031-.3444.3095-.3444.1033 0 .1721.069.1721.1377 0 .1721-.1721.2067-.2752.2067zm.5159.6883c-.0687.0341-.1377.0341-.1718.0341-.3441 0-.4129-.1716-.4129-.3785 0-.1031.0344-.2062.0344-.2752h.2752c.2064 0 .4475-.0341.4475-.2408 0-.1721-.1721-.2751-.3442-.2751-.4818 0-.6537.4821-.6537.8257 0 .3098.1719.4475.4473.4475.1718 0 .2751-.0346.3441-.069z"/><path d="m33.9295 33.879c0-.2408.1721-.8257.4475-.8257.0688 0 .1375.069.1375.172 0 .2408-.2408.8604-.4816.8604-.0346 0-.1034-.0346-.1034-.2067zm.4473.069c-.0346.0341-.0346.1031-.0346.1716 0 .0346.0346.1036.1033.1036.1375 0 .3095-.2413.4126-.3098l-.0343-.0346c-.0688.069-.2065.172-.2411.172 0 0-.0344 0-.0344-.0346 0 0 0-.0346.0344-.0684l.3098-1.5826-.4472.0341v.069c.103 0 .1718 0 .1718.1031v.1031l-.0688.4129c-.0346-.0685-.103-.1377-.2408-.1377-.3441 0-.6193.6883-.6193.9634 0 .1377.0346.3098.2408.3098.2411 0 .4129-.3444.4475-.4475h.0344z"/><path d="m35.4092 33.3972c.0346-.1377.1377-.3444.3095-.3444.1034 0 .1721.069.1721.1377 0 .1721-.1377.2067-.241.2067zm.516.6883c-.0344.0341-.1031.0341-.1718.0341-.3096 0-.3786-.1716-.3786-.3785 0-.1031 0-.2062.0344-.2752h.2752c.2064 0 .4128-.0341.4128-.2408 0-.1721-.1377-.2751-.3097-.2751-.4816 0-.6537.4821-.6537.8257 0 .3098.1721.4475.4129.4475.1718 0 .3095-.0346.3785-.069z"/><path d="m36.6479 33.9821c0-.3092.2408-.8944.4816-.8944.0687 0 .1033.1031.1033.2066 0 .3093-.2064.8599-.4475.8599-.1033 0-.1374-.1031-.1374-.1721zm-.6196.7573h.6881v-.0346c-.1031 0-.2062 0-.2062-.1377 0-.0346 0-.0685.0343-.1031l.0347-.3444h.0343c.0346.069.0687.1036.2065.1036.3785 0 .6536-.6196.6536-.9635 0-.2067-.1033-.3097-.2408-.3097-.241 0-.4475.3443-.4818.4128l.0343-.1031c0-.0689 0-.1377 0-.172 0-.0685-.0343-.1377-.1031-.1377-.1377 0-.3095.2408-.4128.3443h.0687c.0346-.0689.1721-.172.2064-.172.0347 0 .0347.0346.0347.0346v.1031l-.2411 1.2042c-.0344.1721-.1031.2408-.3095.2408v.0344z"/><path d="m38.5743 33.6382c-.1031.3098-.3439.5852-.5504.5852-.1033 0-.172-.0689-.172-.2067 0-.0346.0346-.1377.0346-.2061l.1377-.5506c0-.0346 0-.069 0-.1031v-.0346c-.0687 0-.1721.1031-.2411.172h-.0343c.0687-.1035.2751-.3443.4129-.3443.0687 0 .103.0689.103.1377 0 .0346-.0343.1031-.0343.172l-.1377.6191c0 .0346-.0346.1031-.0346.1031 0 .0346.0346.069.0687.069.1721 0 .5506-.5852.5849-1.0666h.2065l-.2065.9635v.0685c0 .0346 0 .0346.0347.0346.0346 0 .1718-.1031.2408-.1721l.0346.0346c-.1034.0685-.2752.3098-.4129.3098-.0687 0-.1033-.0346-.1033-.1036 0-.0685 0-.1377.0346-.1716z"/><path d="m39.882 33.9135c-.1033.0685-.2752.3098-.4129.3098-.0687 0-.1031-.0346-.1031-.1036 0-.0685 0-.1377.0344-.1716l.1377-.6883c0-.0346 0-.0689 0-.1031 0 0 0-.0346-.0346-.0346-.0344 0-.1375.1031-.2062.1721h-.0346c.0687-.1036.2752-.3444.3785-.3444.0687 0 .1033.069.1033.1377v.1721l-.1377.6883c-.0346.0341-.0346.0685-.0346.0685 0 .0346.0346.0346.0346.0346.0344 0 .1719-.1031.2408-.1721zm-.3098-1.3417c0-.0685.0688-.1377.1377-.1377.1034 0 .1721.069.1721.1377s-.0687.1377-.1721.1377c-.0689-.0003-.1377-.0692-.1377-.1377z"/><path d="m40.9141 33.2941c0-.1377-.0687-.2413-.2408-.2413-.1031 0-.2064.069-.2064.2067 0 .2408.4472.2062.4472.5506 0 .3093-.2408.4128-.5503.4128-.1377 0-.2411-.0346-.2752-.0346l.0344-.3097h.0687c0 .103.0346.2751.2411.2751.1377 0 .2749-.1031.2749-.2751 0-.2408-.4473-.2408-.4473-.5506 0-.2408.2065-.3785.4473-.3785.1377 0 .241.0346.3098.0689l-.0346.2752h-.0688z"/><path d="m41.9116 34.1541c.2064 0 .241-.0685.3097-.2408l.1719-.8604c0-.0684 0-.1372 0-.2061 0-.069-.0346-.1031-.1377-.1031-.0344 0-.0688 0-.1031 0v-.0346l.3785-.1031h.1377l-.2411 1.3073c-.0343.0346-.0343.0685-.0343.1031 0 .1031.1033.1377.1718.1377v.0346h-.688z"/><path d="m43.4256 33.0529c0-.1372.0685-.3785.3095-.3785.1033 0 .2064.069.2064.2413 0 .2062-.1031.3785-.3097.3785-.1375 0-.2062-.069-.2062-.2413zm.0687 1.1701c.3444 0 .5506-.2067.5506-.5164 0-.2408-.1377-.3093-.2408-.3439.2064-.0346.3785-.1377.3785-.447 0-.2413-.1718-.3444-.4129-.3444-.3439 0-.5849.1721-.5849.4475 0 .2062.1033.2751.2064.3439-.2064 0-.3785.2067-.3785.4816 0 .2751.1721.3787.4816.3787zm-.2408-.3441c0-.2408.1033-.4816.3095-.4816.1377 0 .2754.1031.2754.2752 0 .2408-.1033.4469-.3444.4469-.1718 0-.2405-.103-.2405-.2405z"/><path d="m45.3527 32.7091h-.4819c-.2064 0-.241.103-.2751.2408h-.0688l.0688-.3439h.9978v.1031l-.9289 1.4794h-.2408z"/><path d="m45.9719 33.2945c.0346-.0346.1033-.069.2752-.069.2751 0 .4128.1721.4128.4129 0 .2751-.2064.5852-.6536.5852-.2411 0-.4129-.069-.4819-.069l.0346-.1031c.0344 0 .1719.0685.3439.0685.3098 0 .5162-.2062.5162-.4816 0-.2062-.1377-.3098-.2751-.3098-.1721 0-.2411.1036-.2752.1377h-.1377l.2064-.8599h.8255l-.0343.1031h-.6193z"/></g></svg>