<svg fill="none" height="32" viewBox="0 0 32 32" width="32" xmlns="http://www.w3.org/2000/svg"><path d="m18.64 16.0005 4.9498-4.9498c.5469-.5469.5469-1.43358 0-1.97962l-.6599-.65988c-.547-.54707-1.4337-.54707-1.9797 0l-4.9497 4.9496-4.9498-4.95062c-.5469-.54691-1.43358-.54691-1.97962 0l-.6609.65987c-.54691.54708-.54691 1.43375 0 1.97975l4.95062 4.9507-4.9496 4.9497c-.54707.547-.54707 1.4337 0 1.9797l.65988.6599c.5469.5469 1.43352.5469 1.97962 0l4.9498-4.9498 4.9497 4.9498c.547.5469 1.4337.5469 1.9797 0l.6599-.6599c.5469-.547.5469-1.4337 0-1.9797z" fill="#2e4053"/></svg>