<svg fill="none" height="68" viewBox="0 0 68 68" width="68" xmlns="http://www.w3.org/2000/svg"><path d="m42.3159 39.806c.0227.3476.0605.6687.1159.9545-.7342.1335-.7631-.5906-.1159-.9545zm-5.4828.2015h1.2542l-.6271-1.8007zm3.463-7.6878c4.6555 0 8.8148 3.1041 8.8148 7.3503 0 1.5061-.544 2.9845-1.5023 4.1316-.0416 1.3449.7505 3.2741 1.4633 4.6782-1.9116-.345-4.6291-1.1082-5.8606-1.8637-6.7837 1.6534-11.73-2.4984-11.73-6.9461 0-4.2689 4.1883-7.3503 8.8148-7.3503zm-.5503 9.5502-1.8134-4.7751h-.957l-1.8221 4.7751h1.0225l.3929-1.1018h1.7906l.3942 1.1018zm5.0219-2.8912.0995-.4445-.8085-.1574-.0805.3677c-.2708-.0403-.5604-.0454-.8551-.0152l.0353-.5767h.9029v-.7656h-.7946l.1057-.4219-.7895-.2367c-.0579.1939-.1058.3828-.1549.6586h-.9004v.7656h.8034c-.0226.2468-.0327.5024-.0377.7619-.8866.3261-1.2618.9457-1.2618 1.5085 0 .6649.5238 1.2492 1.3524 1.1737 1.0288-.0932 1.7151-.8702 2.1181-1.8259.4181.2392.5931.6434.4357 1.0162-.1448.3463-.573.6749-1.3902.6586v.8235c.9079.0139 1.7995-.3299 2.1495-1.1623.34-.8147-.0516-1.7025-.9293-2.1281zm-1.5741 1.3512c.2141-.2229.3841-.505.5126-.7883-.1852-.0164-.3854-.0114-.5818.0151.0138.277.0352.5352.0692.7732zm-13.2121 3.4037c-2.3762-.3412-4.4968-1.467-6.0785-3.1204-.2291-.238-.3966-.8009-.0239-1.0313l.3803-.0983c.2959-.2506-.2783-1.2706-.0504-1.4355.7065-.505.3715-1.1245-.0642-1.6358-.1838-.2166-1.1938-1.2593-1.3071-1.0741.0844-.2846-.1838-.9722-.345-1.2429-.2733-.4559-.6322-.7367-.777-1.2366-.0579-.199-.0579-.8059-.175-.9457-.0479-.0567-.4118-.2103-.3992-.2934.3501-2.0841 1.3147-3.9579 2.7061-5.4375l.9394-.3791c.5894-.8852.6234-.1989 1.1535-.4294.1776 0 .3791-.7278.5692-.8399.3287-.2128.0781-.2128.0164-.3085-.131-.2116 2.759-1.263 2.8069-1.0742.0403.16-1.4293.9243-1.2681.9017-.3727.0491-.4433.719-.374.7152.1851-.0063 1.3524-.8865 1.8964-.6989.5327.1839 1.4897-.4231 1.8637-.7328.1877-.1574.3602-.4332.6083-.4332 1.1446 0 2.856.4709 3.2476.7052.5969.3563-.2569.3311-.3488.5628-.0731.1789-.2393.4219-.3136.5189-.1284.1674-.5024.0969-.4294-.1033.0743-.2103.4382-.2909-.1083-.3413-.5604-.0516-.7152-.4294-1.2769.0429-.1687.1423-.2946.3601-.4042.5452-.1549.2645-.5289.2531-.685.4987-.1511.2418.0881.6447.3828.4672.0781-.0479.9633.8122.8487.1196-.0743-.4584.2468-.7707.2531-1.117.0038-.2317.3526-.0831.2594.0378-.1221.1524-.2556.6725.0643.6976.1209.0101.4269-.1989.5352-.1057-.1209-.0026-.3967.4823-.3778.4734-.136.0605-.2934-.0264-.1889.2645.0932.2871-.5138.2531-.6233.311-.0466.0252-.5252-.1435-.5138-.0352-.165-.1373.0466-.4773-.0907-.5314-.1385.2115-.073.6447-.3702.6447-.2544 0-.607.2884-.7606.4647-.1096.1221-.7669.3878-.8387.3803.3765.039.3602.3148.3287.5503-.0756.5452-1.253.0403-1.2039.2468.0479.1989-.1347.7379-.175.9117-.0365.1574.5062.2581.476.3362.0025-.0088.7342-.2506.8059-.3148l.165-.369c.1385-.0919.2846-.1675.4407-.2254l.1877-.3249c.0629-.0252.8122-.141.8638-.1158.1876.0856.539.4445.6699.6082.0454.0592.2859.1473.2859.2367.0869.1348-.0642.1864-.0076.2809.131.243.1663-.505.1096-.3652 0-.238.1788.0894.2191.0617l-.8273-.8236c-.2569-.4306.6837.2305.8059.3111.1209.0793.3589.792.6762.6308.199-.1007-.005-.175.1335-.2883l.5654-.1134c-.4495.3287.3513.7581.2292.7002.2015.0932.3198-.073.4458-.0265.0717.0277.8349.0189.7127-.1032.1902.0957.1033.9419-.0554 1.0716-.2569.2128-1.4884.1259-1.7617-.0718-.4546-.3299-.374.3514-.5956.4433-.4332.1788-1.0792-.583-1.5338-.607.2216.0328.0189-.5603.0189-.6019-.1751-.2153-1.2845.0239-1.5766.063-.5465.073-1.1208.0655-1.5401.408-.2947.238-.2984.6296-.6007.8197-.1964.1197-.4092.0806-.5742.238-.2946.2796-.6346.6952-.8021 1.0641-.068.1549.0906.5239.0516.7228-.3866 1.2177.0957 2.9064 1.5716 3.0928.3148.0403.6371.1813.9557.1473 1.6774-3.6267 5.7523-6.1955 10.5111-6.1955 1.1736 0 2.3057.1561 3.3723.4457-1.3915-5.4425-6.3114-9.4709-12.1871-9.4709-6.9549 0-12.5926 5.6377-12.5926 12.5926s5.6377 12.5926 12.5926 12.5926l.0931-.005c-.6409-.6712-1.1723-1.4205-1.5929-2.2239zm6.0167-16.4144c.0857-.0101-.112.1738-.112.1738.034.2669.2304.4118.6031.5478.4534.1624.0378.4722-.2216.3991-.1435-.0403-.8865-.2644-.913.0265 0 .1738-.7051.0012-.5956-.1826.0768-.1234.0516-.4017.1914-.5843.2015-.2645.3942-.1209.4005.0327.0025.4118.418-.3853.6472-.413zm-5.7069-.3677c.1007.1423.8663-.2053.7442-.1839.2355-.1183.0302-.1309-.1033-.2002-.044-.2254-.0818-.5742-.2229-.7127l.0932-.1071c-.2178-.3135-.379.3803-.379.3803l.1133-.0327-.0529.1423c.0894.1624.024.2607.0088.3488l-.1561.097c-.0567.0692.2707.078.2733.0894.0113.0352-.3942.0932-.3186.1788zm-.4987-.3602c-.0869.0895.0025.1461.0919.1071.131-.0567.3073-.0554.3274-.2305l.0831-.1057c.0366-.0542-.0717-.1436-.1158-.1524l-.1562.1083-.0768.0201-.0705.0907.0076.0504zm3.3169 2.6533c-.0693 0-.4647.0365-.4282.1058.2242.3689.5075-.0957.4282-.1058z" fill="#1c1c1c"/></svg>