<svg fill="none" height="68" viewBox="0 0 68 68" width="68" xmlns="http://www.w3.org/2000/svg"><path d="m42.8414 43.9152c-.3395 2.1812-1.2475 4.1759-2.7007 5.8387-.0836-.5929-.3267-1.1677-.5569-1.6281-.526.2778-1.1561.4244-1.7079.4244l-.3408-.0206c1.542-1.6076 2.3034-3.2717 2.5271-5.4914.3614.1016.8012.1543 1.3542.1543.5338.3652.7434.5916 1.425.7227zm6.2695 4.6157c-1.5394-1.605-2.2918-3.2782-2.5168-5.4927-.364.1016-.8038.1569-1.3645.1569-.5324.3665-.7549.5928-1.4224.7214.3395 2.1825 1.2475 4.1758 2.6994 5.8387.0836-.5929.3267-1.1677.5569-1.6281.6559.3459 1.4545.4784 2.0474.4038zm-6.42-6.2104c-.9054-.6353-.7099-.5748-1.83-.571h-.0026c-.4656 0-.8809-.2893-1.0211-.7163-.3434-1.025-.2264-.8655-1.1305-1.4957-.3884-.2675-.5375-.742-.3948-1.1574.3511-1.0199.3511-.8244 0-1.8494-.1402-.4115.0026-.8886.3948-1.1574.9041-.6276.7858-.4694 1.1305-1.4957.1402-.4282.5555-.7163 1.0211-.7163h.0026c1.1188.0025.9234.0669 1.83-.571.1878-.1312.409-.1981.6328-.1981.2237 0 .4449.0669.6327.1981.9054.6366.7099.5748 1.8301.571h.0012c.4669 0 .8823.2881 1.025.7163.3421 1.0237.2212.8655 1.1279 1.4957.2868.1968.4475.5105.4475.8359l-.054.3215c-.3498 1.0199-.3498.8244 0 1.8494.1428.4077 0 .8874-.3935 1.1574-.9067.6289-.7858.4707-1.1279 1.4957-.2636.7896-.8436.7138-1.5175.7138-.5955 0-.598.054-1.3388.5735-.3768.2662-.8887.2662-1.2655 0zm.6328-2.3329c1.3992 0 2.5322-1.1343 2.5322-2.5322s-1.133-2.5322-2.5322-2.5322c-1.3993 0-2.5323 1.133-2.5323 2.5322 0 1.3979 1.133 2.5322 2.5323 2.5322zm-6.011 1.7143c-2.1542 1.3607-4.5797 2.8898-5.0825 3.2062-.0553-.9929-.4231-1.9188-1.0649-2.6802-.0746-.0951-7.4758-9.5167-9.2878-11.8368-1.4263-1.8262-.0772-3.7733 1.5818-3.7733 2.1786 0 3.0467 2.8384 1.1497 4.0678l1.4957 1.9111 10.3566-5.8528c1.7953-1.3272 2.302-3.7784 1.1754-5.7024-.778-1.3272-2.2197-2.1528-3.7604-2.1528-.6109 0-1.2037.126-1.7657.3755l-10.628 5.4361c-1.6731.8025-2.5939 2.3741-2.5939 4.0472 0 1.0495.3626 2.1387 1.1278 3.102 1.8571 2.3342 9.3381 11.8998 9.4127 11.9963 1.1085 1.4751.0218 3.5405-1.7697 3.5405-1.2719 0-1.9496-.9067-2.1438-1.6822-.2263-.9066.0887-1.8094.9941-2.3894l-1.4674-1.8751c-1.0995.7742-1.8004 1.9484-1.938 3.2614-.2933 2.7959 1.9342 5.0529 4.5744 5.0529.8102 0 1.614-.2238 2.3239-.6456l7.054-4.4471c.3395-.5338.6804-1.8404.256-2.9593zm-4.2685-20.2617c.2611-.1222.5543-.1865.8476-.1865.742 0 1.3915.3923 1.7348 1.0494.4347.8295.3138 2.0449-.7639 2.6635l-6.8251 3.8658c0-1.5317-.7471-2.9373-2.0191-3.7964zm2.5554 8.0597 2.2185 2.7226c.4475-.6752 1.1034-1.1845 1.8776-1.4417l-2.0088-2.4641zm-3.7115 10.3437 3.6922-2.0937-.814-1.061-3.682 2.1361zm2.3689-8.9856-6.4457 3.7848.8025 1.0186 6.4637-3.7952zm1.6539 2.0538-6.4753 3.8131.8025 1.0186 6.4933-3.8247z" fill="#f1f1f1"/></svg>