<svg fill="none" height="36" viewBox="0 0 36 36" width="36" xmlns="http://www.w3.org/2000/svg"><path d="m20.1553 13.6587c-.562-.0254-.7313-.0307-2.1553-.0307s-1.5927.0053-2.1547.0307c-1.4466.066-2.1206.7513-2.186 2.186-.026.5626-.032.7313-.032 2.1553s.006 1.5927.0314 2.1553c.066 1.432.7373 2.12 2.186 2.186.562.0254.7313.0314 2.1553.0314 1.4247 0 1.5933-.0054 2.1553-.0307 1.4467-.066 2.12-.7527 2.186-2.186.0254-.5627.0307-.7313.0307-2.1553s-.0053-1.5927-.0307-2.1547c-.066-1.4353-.7406-2.1213-2.186-2.1873zm-2.1553 7.08c-1.5127 0-2.7387-1.226-2.7387-2.7387s1.2267-2.7387 2.7387-2.7387 2.7387 1.226 2.7387 2.7387-1.226 2.7387-2.7387 2.7387zm2.8473-4.9454c-.3533 0-.64-.2866-.64-.64 0-.3533.2867-.64.64-.64.3534 0 .64.2867.64.64 0 .3534-.2866.64-.64.64zm-1.0693 2.2067c0 .982-.796 1.778-1.778 1.778s-1.778-.796-1.778-1.778.796-1.778 1.778-1.778 1.778.796 1.778 1.778zm2.8887-8h-9.3334c-1.8406 0-3.3333 1.4927-3.3333 3.3333v9.3334c0 1.8406 1.4927 3.3333 3.3333 3.3333h9.3334c1.8413 0 3.3333-1.4927 3.3333-3.3333v-9.3334c0-1.8406-1.492-3.3333-3.3333-3.3333zm.6346 10.1987c-.088 1.9393-1.1673 3.014-3.102 3.1026-.5693.026-.7506.032-2.1993.032s-1.6293-.006-2.1987-.032c-1.9386-.0886-3.0133-1.1653-3.1026-3.1026-.026-.5687-.032-.75-.032-2.1987 0-1.448.006-1.63.032-2.1987.0893-1.9386 1.1653-3.014 3.1026-3.102.5694-.0266.75-.0326 2.1987-.0326s1.63.006 2.1993.032c1.9387.0886 3.0154 1.1673 3.102 3.102.026.5693.032.7513.032 2.1993 0 1.4487-.006 1.63-.032 2.1987z" fill="#1c1c1c"/></svg>