<svg fill="none" viewBox="0 0 1439 566" xmlns="http://www.w3.org/2000/svg"><path d="m3.29289 520.795-1.7071 1.707h2.41421 1432.5 1v-1-400-.882l-.87-.11-.13.992c.13-.992.12-.993.12-.993l-.01-.001-.02-.003-.11-.013c-.1-.011-.23-.026-.41-.045-.36-.038-.89-.088-1.56-.142-1.35-.108-3.29-.228-5.66-.28-4.74-.102-11.24.071-18.26 1.176-13.97 2.204-30.24 8.159-38.47 23.324-15.81 29.149-50.76 46.274-83.66 29.09-3.83-2.003-7.09-3.894-9.99-5.573l-.74-.428c-3.06-1.776-5.75-3.309-8.25-4.424-2.52-1.12-4.9-1.841-7.38-1.965-2.49-.125-5.02.354-7.81 1.544-5.52 2.358-12.18 7.552-21.88 16.554-8.98 8.327-20.65 20.002-36.54 35.892-1.33 1.33-2.69 2.69-4.08 4.08-17.89 17.894-33.33 25.479-47.17 27.672-13.84 2.195-26.21-.988-38.06-4.915-2.12-.705-4.24-1.437-6.34-2.165-9.54-3.3-18.89-6.533-28.33-6.962-11.65-.53-23.42 3.19-36.1 15.87-12.4 12.405-23.59 18.94-34.03 22.478-10.448 3.544-20.211 4.105-29.861 4.479-.618.024-1.236.048-1.853.071-8.997.338-17.955.675-27.133 3.376-9.843 2.896-19.897 8.494-30.632 19.608-10.531 10.902-20.09 16.685-29.311 19.963-9.199 3.271-18.108 4.07-27.478 4.91l-.144.013c-9.401.843-19.242 1.741-30.059 5.304-10.831 3.568-22.6 9.793-35.94 21.246-26.011 22.33-53.319 20.657-83.782 18.792l-.506-.031c-30.637-1.876-64.293-3.781-102.08 19.143-18.636 11.305-33.377 15.331-45.766 15.762-12.398.43-22.532-2.734-32.016-5.978-.697-.239-1.391-.478-2.082-.716-8.676-2.99-16.986-5.853-25.962-5.557-9.764.323-20.197 4.362-32.82 15.597-24.694 21.977-48.225 21.989-68.664 19.753-2.736-.3-5.431-.642-8.073-.978-7.184-.912-13.977-1.775-20.151-1.59-8.527.255-16.08 2.502-22.195 9.398-5.796 6.535-11.277 10.41-16.393 12.688-5.114 2.276-9.915 2.979-14.386 3.101-2.241.061-4.397-.023-6.479-.128-.397-.02-.791-.041-1.183-.062-1.657-.087-3.274-.172-4.818-.185-3.822-.032-7.412.372-10.539 2.412-1.147.748-2.744.965-4.87.668-2.119-.297-4.619-1.084-7.444-2.17-2.356-.906-4.89-2.001-7.572-3.161-.528-.228-1.063-.459-1.602-.691-3.268-1.407-6.723-2.864-10.255-4.125-7.046-2.516-14.512-4.301-21.566-3.33-7.121.98-13.717 4.752-18.991 13.113-5.088 8.067-11.289 15.909-17.921 22.356-6.641 6.455-13.665 11.462-20.39 13.926-6.703 2.457-13.022 2.365-18.44-1.215-5.463-3.61-10.214-10.895-13.435-23.285-1.632-6.276-3.245-10.641-4.891-13.445-1.624-2.767-3.459-4.302-5.609-4.232-2.046.065-3.889 1.596-5.543 3.566-1.697 2.023-3.414 4.78-5.165 7.798-.766 1.32-1.54 2.691-2.325 4.083-2.847 5.044-5.845 10.356-9.15 14.438-2.101 2.596-4.26 4.606-6.494 5.722-2.194 1.097-4.471 1.339-6.931.389-5.3807-2.079-9.9864-5.083-14.2509-8.102-.8679-.615-1.725-1.233-2.5733-1.844-3.2818-2.366-6.4329-4.637-9.5772-6.26-4.0003-2.065-8.122-3.156-12.7105-2.118-4.5562 1.031-9.4106 4.126-14.9781 10.073-10.9931 11.743-22.3624 23.487-30.9847 32.297-4.3108 4.404-7.93435 8.075-10.48001 10.644-1.27283 1.284-2.27616 2.293-2.96117 2.981-.3425.344-.60543.608-.78267.786l-.20083.201-.05079.051-.01273.012-.00318.004h-.00078c-.00017 0-.00025.001.70686.708z" fill="#00d49c" stroke="#00d49c" stroke-width="2"/><path d="m1437 522.5h1v-1-68-1.029l-1.03.029.03 1c-.03-1-.03-1-.03-1v.001h-.01-.01l-.05.002c-.04.002-.1.006-.18.011-.15.011-.37.029-.66.061-.58.065-1.45.184-2.61.403-2.33.439-5.82 1.28-10.58 2.887-9.52 3.215-24.09 9.498-44.39 21.779-10.04 6.074-16.63 7.265-21.27 6.224-4.62-1.038-7.57-4.353-10.21-8.071-.5-.71-1-1.453-1.5-2.194-.78-1.139-1.54-2.275-2.31-3.284-1.28-1.697-2.69-3.242-4.41-4.219-1.75-1-3.77-1.372-6.17-.825-2.35.538-5.04 1.954-8.23 4.436-12.47 9.731-24.87 17.775-36.33 21.782-11.45 4.002-21.83 3.935-30.46-2.304-4.34-3.129-7.88-8.015-11.05-13.05-.93-1.486-1.84-2.995-2.73-4.469-2.07-3.438-4.04-6.692-5.97-9.054-1.4-1.699-2.88-3.075-4.53-3.73-1.72-.687-3.51-.54-5.32.595-1.75 1.097-3.51 3.105-5.36 6.11-1.86 3.021-3.86 7.131-6.06 12.532-2.17 5.345-4.14 9.291-5.98 12.144-1.83 2.859-3.48 4.561-5 5.49-1.47.908-2.86 1.104-4.26.865-1.45-.247-2.95-.965-4.62-1.977-.99-.597-1.96-1.249-2.99-1.937-.75-.505-1.53-1.028-2.37-1.564-1.92-1.232-4.02-2.442-6.33-3.314-4.7-1.765-10.2-2.106-16.97 1.276-6.37 3.188-11.09 3.938-14.82 3.555-3.74-.383-6.62-1.91-9.35-3.522-.28-.168-.57-.338-.85-.509-2.39-1.429-4.82-2.882-7.58-3.276-3.19-.456-6.67.499-11.06 3.852-2.81 2.147-5.28 4.173-7.51 5.999-1.15.942-2.23 1.83-3.26 2.654-3.06 2.447-5.69 4.352-8.36 5.612-5.22 2.461-10.78 2.543-20.38-1.396-7.55-3.099-10.6-7.428-13.13-11.006-.63-.895-1.22-1.743-1.85-2.513-1.6-1.967-3.44-3.438-6.47-3.501-2.89-.06-6.74 1.17-12.39 4.055-5.48 2.801-9.98 5.777-14.06 8.47l-.45.296c-4.22 2.782-7.96 5.213-11.92 6.891-7.81 3.303-16.64 3.739-31.718-2.687-.45-.192-.897-.382-1.339-.571-14.483-6.176-24.945-10.638-34.608-11.319-10.086-.711-19.201 2.686-31.064 12.024-5.704 4.491-10.441 5.535-14.588 4.997-4.219-.546-7.97-2.739-11.702-5.06-.257-.16-.514-.32-.772-.481-3.397-2.123-6.862-4.287-10.483-4.861-4.057-.643-8.155.707-12.572 5.514-4.093 4.454-10.326 7.854-17.478 10.432-7.137 2.572-15.1 4.294-22.563 5.444-7.46 1.15-14.395 1.726-19.467 2.014-2.535.143-4.603.215-6.035.251-.716.018-1.273.027-1.65.032-.189.002-.333.003-.429.003l-.107.001h-.027-.006-.002v1 1h.001.002.008z" fill="#ff9466" stroke="#ff9466" stroke-width="2"/><g fill="#1c1c1c"><path d="m58.192 558.192c-1.408 0-2.52-.24-3.336-.72s-1.392-1.2-1.728-2.16-.504-2.208-.504-3.744v-5.568c0-2.128.128-3.8.384-5.016.272-1.232.816-2.168 1.632-2.808.816-.656 2.04-.984 3.672-.984.896 0 1.72.152 2.472.456s1.352.76 1.8 1.368.672 1.344.672 2.208v2.232h-3.984v-.432c0-.704-.064-1.248-.192-1.632-.112-.384-.392-.576-.84-.576s-.768.12-.96.36c-.176.24-.264.608-.264 1.104v4.152c.192-.384.488-.68.888-.888.4-.224.872-.336 1.416-.336 1.12 0 1.984.224 2.592.672.624.448 1.056 1.112 1.296 1.992s.36 2.032.36 3.456c0 2.192-.416 3.888-1.248 5.088-.832 1.184-2.208 1.776-4.128 1.776zm-.144-3.792c.432 0 .704-.168.816-.504.128-.352.192-.92.192-1.704v-1.656c0-1.12-.32-1.68-.96-1.68-.72 0-1.08.488-1.08 1.464v2.544c0 1.024.344 1.536 1.032 1.536zm11.7394 3.792c-1.744 0-3.088-.488-4.032-1.464-.944-.992-1.416-2.4-1.416-4.224v-9.312c0-1.952.456-3.44 1.368-4.464s2.272-1.536 4.08-1.536c1.824 0 3.192.512 4.104 1.536s1.368 2.512 1.368 4.464v9.312c0 1.84-.472 3.248-1.416 4.224s-2.296 1.464-4.056 1.464zm0-3.792c.304 0 .552-.136.744-.408.192-.288.288-.624.288-1.008v-10.176c0-.592-.072-1.04-.216-1.344-.128-.32-.4-.48-.816-.48s-.688.16-.816.48c-.128.304-.192.752-.192 1.344v10.176c0 .384.088.72.264 1.008.192.272.44.408.744.408z"/><path d="m182.192 558.192c-1.408 0-2.52-.24-3.336-.72s-1.392-1.2-1.728-2.16-.504-2.208-.504-3.744v-5.568c0-2.128.128-3.8.384-5.016.272-1.232.816-2.168 1.632-2.808.816-.656 2.04-.984 3.672-.984.896 0 1.72.152 2.472.456s1.352.76 1.8 1.368.672 1.344.672 2.208v2.232h-3.984v-.432c0-.704-.064-1.248-.192-1.632-.112-.384-.392-.576-.84-.576s-.768.12-.96.36c-.176.24-.264.608-.264 1.104v4.152c.192-.384.488-.68.888-.888.4-.224.872-.336 1.416-.336 1.12 0 1.984.224 2.592.672.624.448 1.056 1.112 1.296 1.992s.36 2.032.36 3.456c0 2.192-.416 3.888-1.248 5.088-.832 1.184-2.208 1.776-4.128 1.776zm-.144-3.792c.432 0 .704-.168.816-.504.128-.352.192-.92.192-1.704v-1.656c0-1.12-.32-1.68-.96-1.68-.72 0-1.08.488-1.08 1.464v2.544c0 1.024.344 1.536 1.032 1.536zm11.739 3.888c-1.648 0-2.96-.4-3.936-1.2-.976-.816-1.464-2.016-1.464-3.6v-3.048h4.296v1.752c0 .704.072 1.256.216 1.656s.44.6.888.6c.416 0 .696-.136.84-.408.16-.272.24-.672.24-1.2v-4.056c0-.656-.072-1.176-.216-1.56-.128-.4-.408-.6-.84-.6-.784 0-1.176.568-1.176 1.704h-3.768v-10.968h9.816v3.864h-5.904v2.904c.208-.272.488-.496.84-.672s.752-.264 1.2-.264c1.728 0 2.904.608 3.528 1.824.64 1.216.96 2.936.96 5.16 0 1.84-.136 3.336-.408 4.488-.256 1.136-.784 2.024-1.584 2.664s-1.976.96-3.528.96z"/><path d="m301.704 558c.144-2.208.496-4.272 1.056-6.192.576-1.92 1.368-4.144 2.376-6.672.32-.8.552-1.4.696-1.8l.816-2.16h-5.832v-3.816h10.416v3.072c-.08.752-.248 1.472-.504 2.16-.24.672-.584 1.496-1.032 2.472-.352.736-.624 1.352-.816 1.848-.688 1.776-1.248 3.568-1.68 5.376-.432 1.792-.712 3.696-.84 5.712zm16.083.192c-1.744 0-3.088-.488-4.032-1.464-.944-.992-1.416-2.4-1.416-4.224v-9.312c0-1.952.456-3.44 1.368-4.464s2.272-1.536 4.08-1.536c1.824 0 3.192.512 4.104 1.536s1.368 2.512 1.368 4.464v9.312c0 1.84-.472 3.248-1.416 4.224s-2.296 1.464-4.056 1.464zm0-3.792c.304 0 .552-.136.744-.408.192-.288.288-.624.288-1.008v-10.176c0-.592-.072-1.04-.216-1.344-.128-.32-.4-.48-.816-.48s-.688.16-.816.48c-.128.304-.192.752-.192 1.344v10.176c0 .384.088.72.264 1.008.192.272.44.408.744.408z"/><path d="m425.704 558c.144-2.208.496-4.272 1.056-6.192.576-1.92 1.368-4.144 2.376-6.672.32-.8.552-1.4.696-1.8l.816-2.16h-5.832v-3.816h10.416v3.072c-.08.752-.248 1.472-.504 2.16-.24.672-.584 1.496-1.032 2.472-.352.736-.624 1.352-.816 1.848-.688 1.776-1.248 3.568-1.68 5.376-.432 1.792-.712 3.696-.84 5.712zm16.083.288c-1.648 0-2.96-.4-3.936-1.2-.976-.816-1.464-2.016-1.464-3.6v-3.048h4.296v1.752c0 .704.072 1.256.216 1.656s.44.6.888.6c.416 0 .696-.136.84-.408.16-.272.24-.672.24-1.2v-4.056c0-.656-.072-1.176-.216-1.56-.128-.4-.408-.6-.84-.6-.784 0-1.176.568-1.176 1.704h-3.768v-10.968h9.816v3.864h-5.904v2.904c.208-.272.488-.496.84-.672s.752-.264 1.2-.264c1.728 0 2.904.608 3.528 1.824.64 1.216.96 2.936.96 5.16 0 1.84-.136 3.336-.408 4.488-.256 1.136-.784 2.024-1.584 2.664s-1.976.96-3.528.96z"/><path d="m553.928 558.216c-1.888 0-3.264-.536-4.128-1.608-.848-1.072-1.272-2.656-1.272-4.752v-1.368c0-1.088.128-1.952.384-2.592.272-.64.736-1.12 1.392-1.44-.624-.256-1.072-.68-1.344-1.272s-.408-1.352-.408-2.28v-.552c0-1.792.448-3.112 1.344-3.96.912-.848 2.256-1.272 4.032-1.272 1.808 0 3.152.432 4.032 1.296.896.864 1.344 2.232 1.344 4.104 0 1.056-.128 1.912-.384 2.568-.256.64-.712 1.104-1.368 1.392.736.352 1.216.904 1.44 1.656.224.736.336 1.8.336 3.192 0 .272-.008.448-.024.528 0 2.096-.424 3.68-1.272 4.752s-2.216 1.608-4.104 1.608zm0-13.512c.72 0 1.08-.656 1.08-1.968 0-.512-.088-.944-.264-1.296-.16-.352-.432-.528-.816-.528s-.664.176-.84.528c-.16.352-.24.784-.24 1.296 0 1.312.36 1.968 1.08 1.968zm0 9.432c.752 0 1.128-.68 1.128-2.04l-.024-1.032c0-.784-.064-1.416-.192-1.896s-.432-.72-.912-.72c-.4 0-.688.216-.864.648-.176.416-.264.936-.264 1.56 0 .272.008.472.024.6v.192l-.024.648c0 1.36.376 2.04 1.128 2.04zm11.859 4.056c-1.744 0-3.088-.488-4.032-1.464-.944-.992-1.416-2.4-1.416-4.224v-9.312c0-1.952.456-3.44 1.368-4.464s2.272-1.536 4.08-1.536c1.824 0 3.192.512 4.104 1.536s1.368 2.512 1.368 4.464v9.312c0 1.84-.472 3.248-1.416 4.224s-2.296 1.464-4.056 1.464zm0-3.792c.304 0 .552-.136.744-.408.192-.288.288-.624.288-1.008v-10.176c0-.592-.072-1.04-.216-1.344-.128-.32-.4-.48-.816-.48s-.688.16-.816.48c-.128.304-.192.752-.192 1.344v10.176c0 .384.088.72.264 1.008.192.272.44.408.744.408z"/><path d="m677.928 558.216c-1.888 0-3.264-.536-4.128-1.608-.848-1.072-1.272-2.656-1.272-4.752v-1.368c0-1.088.128-1.952.384-2.592.272-.64.736-1.12 1.392-1.44-.624-.256-1.072-.68-1.344-1.272s-.408-1.352-.408-2.28v-.552c0-1.792.448-3.112 1.344-3.96.912-.848 2.256-1.272 4.032-1.272 1.808 0 3.152.432 4.032 1.296.896.864 1.344 2.232 1.344 4.104 0 1.056-.128 1.912-.384 2.568-.256.64-.712 1.104-1.368 1.392.736.352 1.216.904 1.44 1.656.224.736.336 1.8.336 3.192 0 .272-.008.448-.024.528 0 2.096-.424 3.68-1.272 4.752s-2.216 1.608-4.104 1.608zm0-13.512c.72 0 1.08-.656 1.08-1.968 0-.512-.088-.944-.264-1.296-.16-.352-.432-.528-.816-.528s-.664.176-.84.528c-.16.352-.24.784-.24 1.296 0 1.312.36 1.968 1.08 1.968zm0 9.432c.752 0 1.128-.68 1.128-2.04l-.024-1.032c0-.784-.064-1.416-.192-1.896s-.432-.72-.912-.72c-.4 0-.688.216-.864.648-.176.416-.264.936-.264 1.56 0 .272.008.472.024.6v.192l-.024.648c0 1.36.376 2.04 1.128 2.04zm11.859 4.152c-1.648 0-2.96-.4-3.936-1.2-.976-.816-1.464-2.016-1.464-3.6v-3.048h4.296v1.752c0 .704.072 1.256.216 1.656s.44.6.888.6c.416 0 .696-.136.84-.408.16-.272.24-.672.24-1.2v-4.056c0-.656-.072-1.176-.216-1.56-.128-.4-.408-.6-.84-.6-.784 0-1.176.568-1.176 1.704h-3.768v-10.968h9.816v3.864h-5.904v2.904c.208-.272.488-.496.84-.672s.752-.264 1.2-.264c1.728 0 2.904.608 3.528 1.824.64 1.216.96 2.936.96 5.16 0 1.84-.136 3.336-.408 4.488-.256 1.136-.784 2.024-1.584 2.664s-1.976.96-3.528.96z"/><path d="m801.856 558.192c-.896 0-1.72-.152-2.472-.456-.736-.32-1.328-.784-1.776-1.392s-.672-1.344-.672-2.208v-2.208h3.96v.408c0 .688.064 1.232.192 1.632s.408.6.84.6c.448 0 .76-.12.936-.36.192-.256.288-.632.288-1.128v-4.128c-.192.368-.488.664-.888.888s-.872.336-1.416.336c-1.12 0-1.992-.224-2.616-.672-.608-.448-1.032-1.112-1.272-1.992s-.36-2.04-.36-3.48c0-2.192.416-3.88 1.248-5.064s2.208-1.776 4.128-1.776c1.408 0 2.52.24 3.336.72s1.392 1.2 1.728 2.16.504 2.208.504 3.744v5.568c0 2.128-.128 3.808-.384 5.04-.256 1.216-.792 2.152-1.608 2.808-.816.64-2.048.96-3.696.96zm.216-11.664c.72 0 1.08-.488 1.08-1.464v-2.568c0-1.008-.344-1.512-1.032-1.512-.432 0-.712.176-.84.528-.112.336-.168.888-.168 1.656v1.68c0 1.12.32 1.68.96 1.68zm11.95 11.664c-1.744 0-3.088-.488-4.032-1.464-.944-.992-1.416-2.4-1.416-4.224v-9.312c0-1.952.456-3.44 1.368-4.464s2.272-1.536 4.08-1.536c1.824 0 3.192.512 4.104 1.536s1.368 2.512 1.368 4.464v9.312c0 1.84-.472 3.248-1.416 4.224s-2.296 1.464-4.056 1.464zm0-3.792c.304 0 .552-.136.744-.408.192-.288.288-.624.288-1.008v-10.176c0-.592-.072-1.04-.216-1.344-.128-.32-.4-.48-.816-.48s-.688.16-.816.48c-.128.304-.192.752-.192 1.344v10.176c0 .384.088.72.264 1.008.192.272.44.408.744.408z"/><path d="m925.856 558.192c-.896 0-1.72-.152-2.472-.456-.736-.32-1.328-.784-1.776-1.392s-.672-1.344-.672-2.208v-2.208h3.96v.408c0 .688.064 1.232.192 1.632s.408.6.84.6c.448 0 .76-.12.936-.36.192-.256.288-.632.288-1.128v-4.128c-.192.368-.488.664-.888.888s-.872.336-1.416.336c-1.12 0-1.992-.224-2.616-.672-.608-.448-1.032-1.112-1.272-1.992s-.36-2.04-.36-3.48c0-2.192.416-3.88 1.248-5.064s2.208-1.776 4.128-1.776c1.408 0 2.52.24 3.336.72s1.392 1.2 1.728 2.16.504 2.208.504 3.744v5.568c0 2.128-.128 3.808-.384 5.04-.256 1.216-.792 2.152-1.608 2.808-.816.64-2.048.96-3.696.96zm.216-11.664c.72 0 1.08-.488 1.08-1.464v-2.568c0-1.008-.344-1.512-1.032-1.512-.432 0-.712.176-.84.528-.112.336-.168.888-.168 1.656v1.68c0 1.12.32 1.68.96 1.68zm11.95 11.76c-1.648 0-2.96-.4-3.936-1.2-.976-.816-1.464-2.016-1.464-3.6v-3.048h4.296v1.752c0 .704.072 1.256.216 1.656s.44.6.888.6c.416 0 .696-.136.84-.408.16-.272.24-.672.24-1.2v-4.056c0-.656-.072-1.176-.216-1.56-.128-.4-.408-.6-.84-.6-.784 0-1.176.568-1.176 1.704h-3.768v-10.968h9.816v3.864h-5.904v2.904c.208-.272.488-.496.84-.672s.752-.264 1.2-.264c1.728 0 2.904.608 3.528 1.824.64 1.216.96 2.936.96 5.16 0 1.84-.136 3.336-.408 4.488-.256 1.136-.784 2.024-1.584 2.664s-1.976.96-3.528.96z"/><path d="m1049.93 558.192c-1.75 0-3.09-.488-4.03-1.464-.95-.992-1.42-2.4-1.42-4.224v-9.312c0-1.952.46-3.44 1.37-4.464s2.27-1.536 4.08-1.536c1.82 0 3.19.512 4.1 1.536s1.37 2.512 1.37 4.464v9.312c0 1.84-.47 3.248-1.42 4.224-.94.976-2.29 1.464-4.05 1.464zm0-3.792c.3 0 .55-.136.74-.408.19-.288.29-.624.29-1.008v-10.176c0-.592-.07-1.04-.22-1.344-.12-.32-.4-.48-.81-.48-.42 0-.69.16-.82.48-.13.304-.19.752-.19 1.344v10.176c0 .384.09.72.26 1.008.2.272.44.408.75.408zm11.86 3.792c-1.75 0-3.09-.488-4.03-1.464-.95-.992-1.42-2.4-1.42-4.224v-9.312c0-1.952.46-3.44 1.37-4.464s2.27-1.536 4.08-1.536c1.82 0 3.19.512 4.1 1.536s1.37 2.512 1.37 4.464v9.312c0 1.84-.47 3.248-1.42 4.224-.94.976-2.29 1.464-4.05 1.464zm0-3.792c.3 0 .55-.136.74-.408.19-.288.29-.624.29-1.008v-10.176c0-.592-.07-1.04-.22-1.344-.12-.32-.4-.48-.81-.48-.42 0-.69.16-.82.48-.13.304-.19.752-.19 1.344v10.176c0 .384.09.72.26 1.008.2.272.44.408.75.408z"/><path d="m1170.83 542.112c-.27.336-.65.608-1.15.816-.48.208-.94.312-1.39.312v-3.288c.7-.112 1.4-.392 2.09-.84.7-.448 1.2-1.032 1.51-1.752h3.31v20.64h-4.37zm11.04 16.08c-1.74 0-3.08-.488-4.03-1.464-.94-.992-1.41-2.4-1.41-4.224v-9.312c0-1.952.45-3.44 1.36-4.464.92-1.024 2.28-1.536 4.08-1.536 1.83 0 3.2.512 4.11 1.536s1.37 2.512 1.37 4.464v9.312c0 1.84-.48 3.248-1.42 4.224s-2.3 1.464-4.06 1.464zm0-3.792c.31 0 .56-.136.75-.408.19-.288.29-.624.29-1.008v-10.176c0-.592-.08-1.04-.22-1.344-.13-.32-.4-.48-.82-.48-.41 0-.68.16-.81.48-.13.304-.19.752-.19 1.344v10.176c0 .384.08.72.26 1.008.19.272.44.408.74.408z"/><path d="m1290.83 542.112c-.27.336-.65.608-1.15.816-.48.208-.94.312-1.39.312v-3.288c.7-.112 1.4-.392 2.09-.84.7-.448 1.2-1.032 1.51-1.752h3.31v20.64h-4.37zm11.04 16.176c-1.64 0-2.96-.4-3.93-1.2-.98-.816-1.47-2.016-1.47-3.6v-3.048h4.3v1.752c0 .704.07 1.256.22 1.656.14.4.44.6.88.6.42 0 .7-.136.84-.408.16-.272.24-.672.24-1.2v-4.056c0-.656-.07-1.176-.21-1.56-.13-.4-.41-.6-.84-.6-.79 0-1.18.568-1.18 1.704h-3.77v-10.968h9.82v3.864h-5.9v2.904c.2-.272.48-.496.84-.672.35-.176.75-.264 1.2-.264 1.72 0 2.9.608 3.52 1.824.64 1.216.96 2.936.96 5.16 0 1.84-.13 3.336-.4 4.488-.26 1.136-.79 2.024-1.59 2.664s-1.97.96-3.53.96z"/><path d="m1408.72 557.016c0-.944.14-1.816.43-2.616.31-.8.67-1.52 1.11-2.16.43-.64 1-1.392 1.7-2.256.72-.896 1.29-1.656 1.7-2.28.44-.624.8-1.336 1.08-2.136.31-.816.46-1.696.46-2.64 0-.56-.08-.992-.24-1.296-.16-.32-.45-.48-.86-.48-.69 0-1.04.616-1.04 1.848v2.52h-4.34l-.05-1.272c0-1.568.16-2.856.48-3.864s.88-1.776 1.68-2.304 1.91-.792 3.31-.792c1.73 0 3.07.488 4.01 1.464.95.96 1.42 2.328 1.42 4.104 0 1.136-.16 2.168-.48 3.096-.31.912-.69 1.712-1.15 2.4-.45.688-1.05 1.496-1.8 2.424-.55.656-1 1.24-1.37 1.752-.35.512-.67 1.04-.96 1.584h5.61v3.888h-10.7zm17.07 1.176c-1.75 0-3.09-.488-4.03-1.464-.95-.992-1.42-2.4-1.42-4.224v-9.312c0-1.952.46-3.44 1.37-4.464s2.27-1.536 4.08-1.536c1.82 0 3.19.512 4.1 1.536s1.37 2.512 1.37 4.464v9.312c0 1.84-.47 3.248-1.42 4.224-.94.976-2.29 1.464-4.05 1.464zm0-3.792c.3 0 .55-.136.74-.408.19-.288.29-.624.29-1.008v-10.176c0-.592-.07-1.04-.22-1.344-.12-.32-.4-.48-.81-.48-.42 0-.69.16-.82.48-.13.304-.19.752-.19 1.344v10.176c0 .384.09.72.26 1.008.2.272.44.408.75.408z"/></g><rect fill="#f1f1f1" height="62" rx="4" stroke="#1c1c1c" stroke-width="2" width="230" x="468" y="1"/><path d="m516.912 21.384h6.336c1.008 0 1.784.232 2.328.696.56.448.936 1.088 1.128 1.92.192.816.288 1.864.288 3.144 0 1.168-.152 2.08-.456 2.736s-.832 1.112-1.584 1.368c.624.128 1.072.44 1.344.936.288.496.432 1.168.432 2.016l-.048 7.8h-4.032v-8.064c0-.576-.112-.944-.336-1.104s-.632-.24-1.224-.24v9.408h-4.176zm5.184 7.632c.576 0 .864-.624.864-1.872 0-.544-.024-.952-.072-1.224s-.136-.456-.264-.552c-.128-.112-.312-.168-.552-.168h-.96v3.816zm11.294 13.176c-3.504 0-5.256-1.816-5.256-5.448v-7.056c0-1.664.464-2.984 1.392-3.96.944-.992 2.232-1.488 3.864-1.488s2.912.496 3.84 1.488c.944.976 1.416 2.296 1.416 3.96v7.056c0 3.632-1.752 5.448-5.256 5.448zm0-3.24c.336 0 .584-.12.744-.36s.24-.568.24-.984v-8.592c0-1.024-.328-1.536-.984-1.536s-.984.512-.984 1.536v8.592c0 .416.08.744.24.984s.408.36.744.36zm6.817 3.048v-20.736h4.272v20.736zm10.873.192c-1.808 0-3.104-.496-3.888-1.488s-1.176-2.472-1.176-4.44v-7.056c0-1.616.464-2.848 1.392-3.696s2.224-1.272 3.888-1.272c3.376 0 5.064 1.656 5.064 4.968v1.272c0 1.28-.016 2.32-.048 3.12h-6.096v3.408c0 .608.064 1.088.192 1.44.128.336.4.504.816.504.32 0 .544-.096.672-.288.144-.192.224-.408.24-.648.032-.256.048-.624.048-1.104v-1.704h4.176v1.008c0 2.048-.4 3.56-1.2 4.536-.784.96-2.144 1.44-4.08 1.44zm1.104-10.68v-2.256c0-1.264-.312-1.896-.936-1.896-.704 0-1.056.632-1.056 1.896v2.256zm15.775 10.488h-4.2l-1.776-4.944-1.68 4.944h-3.168l3.216-9.432-2.928-8.16h4.272l1.512 4.272 1.488-4.272h3.12l-3.024 8.688zm11.529.192c-1.872 0-3.224-.464-4.056-1.392s-1.248-2.424-1.248-4.488v-2.016h4.056v2.568c0 1.024.328 1.536.984 1.536.368 0 .624-.104.768-.312.144-.224.216-.592.216-1.104 0-.672-.08-1.224-.24-1.656-.16-.448-.368-.816-.624-1.104-.24-.304-.68-.768-1.32-1.392l-1.776-1.776c-1.376-1.344-2.064-2.832-2.064-4.464 0-1.76.4-3.096 1.2-4.008.816-.928 2-1.392 3.552-1.392 1.856 0 3.192.496 4.008 1.488.816.976 1.224 2.512 1.224 4.608h-4.2l-.024-1.416c0-.272-.08-.488-.24-.648-.144-.16-.352-.24-.624-.24-.32 0-.56.088-.72.264s-.24.416-.24.72c0 .672.384 1.368 1.152 2.088l2.4 2.304c.56.544 1.024 1.064 1.392 1.56.368.48.664 1.056.888 1.728.224.656.336 1.44.336 2.352 0 2.032-.376 3.576-1.128 4.632-.736 1.04-1.96 1.56-3.672 1.56zm9.478 0c-1.312 0-2.216-.392-2.712-1.176-.48-.784-.72-1.952-.72-3.504v-13.08h4.224v12.24.912c0 .48.072.824.216 1.032.16.192.4.288.72.288.432 0 .704-.176.816-.528.112-.368.168-.888.168-1.56v-.144l.024-12.24h4.176v17.568h-4.2v-1.872c-.288.736-.624 1.264-1.008 1.584s-.952.48-1.704.48zm15.385 0c-1.152 0-1.976-.688-2.472-2.064v1.872h-4.32v-20.736h4.32v4.008c.672-.688 1.456-1.032 2.352-1.032 1.36 0 2.336.408 2.928 1.224.592.8.888 1.96.888 3.48v8.472c0 1.44-.304 2.6-.912 3.48-.608.864-1.536 1.296-2.784 1.296zm-1.416-3.264c.288 0 .488-.088.6-.264.128-.192.2-.424.216-.696.032-.288.048-.728.048-1.32v-7.32c0-.624-.056-1.088-.168-1.392s-.352-.456-.72-.456c-.4 0-.672.152-.816.456s-.216.752-.216 1.344v7.368c0 .768.064 1.344.192 1.728.128.368.416.552.864.552zm6.647-14.496h4.104v2.04c.192-.752.52-1.312.984-1.68s1.12-.552 1.968-.552c.688 0 1.28.16 1.776.48.512.304.872.728 1.08 1.272.352-.608.744-1.048 1.176-1.32.432-.288 1.032-.432 1.8-.432 1.376 0 2.328.424 2.856 1.272.544.832.816 2.048.816 3.648l-.048 12.84h-4.224v-12.912c0-1.136-.288-1.704-.864-1.704-.4 0-.688.2-.864.6-.176.384-.264.848-.264 1.392v12.624h-4.2v-12.912c0-.496-.056-.896-.168-1.2-.096-.304-.312-.456-.648-.456-.432 0-.736.216-.912.648-.176.416-.264.92-.264 1.512v12.408h-4.104zm21.38 17.76c-1.36 0-2.296-.448-2.808-1.344-.496-.912-.744-2.208-.744-3.888 0-1.376.176-2.432.528-3.168.368-.736.872-1.272 1.512-1.608.64-.352 1.616-.736 2.928-1.152l1.152-.384v-.048-1.752c0-.464-.096-.816-.288-1.056-.176-.256-.392-.384-.648-.384-.224 0-.424.104-.6.312-.16.208-.24.488-.24.84v1.056h-4.08v-.576c0-1.728.4-2.96 1.2-3.696.816-.736 2.136-1.104 3.96-1.104 1.456 0 2.64.384 3.552 1.152.912.752 1.368 1.824 1.368 3.216v13.392h-4.176v-2.088c-.208.72-.544 1.28-1.008 1.68-.448.4-.984.6-1.608.6zm1.656-3.264c.32 0 .544-.128.672-.384.144-.272.216-.6.216-.984v-4.896c-.624.24-1.088.544-1.392.912-.288.368-.432.88-.432 1.536v2.256c0 1.04.312 1.56.936 1.56zm6.753-14.496h4.2v1.944c.208-.688.568-1.216 1.08-1.584.528-.384 1.176-.576 1.944-.576v3.504c-.592 0-1.248.088-1.968.264-.704.16-1.056.352-1.056.576v13.44h-4.2zm8.226-1.176v-2.928h4.2v2.928zm0 18.744v-17.568h4.2v17.568zm5.86-17.568h4.2v2.232c.176-.72.48-1.304.912-1.752s1.008-.672 1.728-.672c1.184 0 2.056.368 2.616 1.104.576.72.864 1.752.864 3.096v13.56h-4.128v-13.128c0-.384-.08-.712-.24-.984-.144-.272-.376-.408-.696-.408-.432 0-.72.2-.864.6-.128.384-.192.904-.192 1.56v12.36h-4.2zm16.897 17.76c-1.808 0-3.104-.496-3.888-1.488s-1.176-2.472-1.176-4.44v-7.056c0-1.616.464-2.848 1.392-3.696s2.224-1.272 3.888-1.272c3.376 0 5.064 1.656 5.064 4.968v1.272c0 1.28-.016 2.32-.048 3.12h-6.096v3.408c0 .608.064 1.088.192 1.44.128.336.4.504.816.504.32 0 .544-.096.672-.288.144-.192.224-.408.24-.648.032-.256.048-.624.048-1.104v-1.704h4.176v1.008c0 2.048-.4 3.56-1.2 4.536-.784.96-2.144 1.44-4.08 1.44zm1.104-10.68v-2.256c0-1.264-.312-1.896-.936-1.896-.704 0-1.056.632-1.056 1.896v2.256zm5.695-7.08h4.2v1.944c.208-.688.568-1.216 1.08-1.584.528-.384 1.176-.576 1.944-.576v3.504c-.592 0-1.248.088-1.968.264-.704.16-1.056.352-1.056.576v13.44h-4.2z" fill="#1c1c1c"/><circle cx="493" cy="32" fill="#00d49c" r="12"/><rect fill="#f1f1f1" height="62" rx="4" stroke="#1c1c1c" stroke-width="2" width="125" x="744" y="1"/><path d="m797.712 42.192c-1.504 0-2.712-.472-3.624-1.416-.896-.944-1.344-2.24-1.344-3.888v-9.504c0-2.048.408-3.592 1.224-4.632s2.096-1.56 3.84-1.56c1.52 0 2.744.416 3.672 1.248s1.392 2.032 1.392 3.6v3.552h-4.104v-3.048c0-.592-.072-1-.216-1.224s-.392-.336-.744-.336c-.368 0-.624.128-.768.384-.128.256-.192.632-.192 1.128v10.344c0 .544.08.944.24 1.2.16.24.4.36.72.36.64 0 .96-.52.96-1.56v-3.72h4.152v3.888c0 3.456-1.736 5.184-5.208 5.184zm6.015-.192 1.992-20.616h6.984l1.968 20.616h-3.912l-.288-3.336h-2.496l-.24 3.336zm4.56-6.624h1.872l-.912-10.488h-.192zm12.441 6.816c-1.504 0-2.712-.472-3.624-1.416-.896-.944-1.344-2.24-1.344-3.888v-9.504c0-2.048.408-3.592 1.224-4.632s2.096-1.56 3.84-1.56c1.52 0 2.744.416 3.672 1.248s1.392 2.032 1.392 3.6v3.552h-4.104v-3.048c0-.592-.072-1-.216-1.224s-.392-.336-.744-.336c-.368 0-.624.128-.768.384-.128.256-.192.632-.192 1.128v10.344c0 .544.08.944.24 1.2.16.24.4.36.72.36.64 0 .96-.52.96-1.56v-3.72h4.152v3.888c0 3.456-1.736 5.184-5.208 5.184zm17.616-.192v-3.264h-6.12v-3.216l3.888-14.16h6.432v13.944h1.104v3.432h-1.104v3.264zm-2.448-6.696h2.448v-10.392zm13.899 6.888c-1.744 0-3.088-.488-4.032-1.464-.944-.992-1.416-2.4-1.416-4.224v-9.312c0-1.952.456-3.44 1.368-4.464s2.272-1.536 4.08-1.536c1.824 0 3.192.512 4.104 1.536s1.368 2.512 1.368 4.464v9.312c0 1.84-.472 3.248-1.416 4.224s-2.296 1.464-4.056 1.464zm0-3.792c.304 0 .552-.136.744-.408.192-.288.288-.624.288-1.008v-10.176c0-.592-.072-1.04-.216-1.344-.128-.32-.4-.48-.816-.48s-.688.16-.816.48c-.128.304-.192.752-.192 1.344v10.176c0 .384.088.72.264 1.008.192.272.44.408.744.408z" fill="#1c1c1c"/><circle cx="769" cy="32" fill="#ff9466" r="12"/><path d="m57.928 409.288c-1.648 0-2.96-.4-3.936-1.2-.976-.816-1.464-2.016-1.464-3.6v-3.048h4.296v1.752c0 .704.072 1.256.216 1.656s.44.6.888.6c.416 0 .696-.136.84-.408.16-.272.24-.672.24-1.2v-4.056c0-.656-.072-1.176-.216-1.56-.128-.4-.408-.6-.84-.6-.784 0-1.176.568-1.176 1.704h-3.768v-10.968h9.816v3.864h-5.904v2.904c.208-.272.488-.496.84-.672s.752-.264 1.2-.264c1.728 0 2.904.608 3.528 1.824.64 1.216.96 2.936.96 5.16 0 1.84-.136 3.336-.408 4.488-.256 1.136-.784 2.024-1.584 2.664s-1.976.96-3.528.96zm11.8594-.096c-1.744 0-3.088-.488-4.032-1.464-.944-.992-1.416-2.4-1.416-4.224v-9.312c0-1.952.456-3.44 1.368-4.464s2.272-1.536 4.08-1.536c1.824 0 3.192.512 4.104 1.536s1.368 2.512 1.368 4.464v9.312c0 1.84-.472 3.248-1.416 4.224s-2.296 1.464-4.056 1.464zm0-3.792c.304 0 .552-.136.744-.408.192-.288.288-.624.288-1.008v-10.176c0-.592-.072-1.04-.216-1.344-.128-.32-.4-.48-.816-.48s-.688.16-.816.48c-.128.304-.192.752-.192 1.344v10.176c0 .384.088.72.264 1.008.192.272.44.408.744.408zm11.8594 3.792c-1.744 0-3.088-.488-4.032-1.464-.944-.992-1.416-2.4-1.416-4.224v-9.312c0-1.952.456-3.44 1.368-4.464s2.272-1.536 4.08-1.536c1.824 0 3.192.512 4.104 1.536s1.368 2.512 1.368 4.464v9.312c0 1.84-.472 3.248-1.416 4.224s-2.296 1.464-4.056 1.464zm0-3.792c.304 0 .552-.136.744-.408.192-.288.288-.624.288-1.008v-10.176c0-.592-.072-1.04-.216-1.344-.128-.32-.4-.48-.816-.48s-.688.16-.816.48c-.128.304-.192.752-.192 1.344v10.176c0 .384.088.72.264 1.008.192.272.44.408.744.408zm13.6593 3.6 6.3359-20.712h3.792l-6.3359 20.712zm-2.664-6.192c-1.44 0-2.56-.44-3.36-1.32s-1.2-2.08-1.2-3.6v-4.248c0-1.584.376-2.792 1.128-3.624.768-.848 1.912-1.272 3.432-1.272 1.536 0 2.688.424 3.456 1.272.768.832 1.152 2.04 1.152 3.624v4.248c0 1.52-.408 2.72-1.224 3.6-.8.88-1.928 1.32-3.384 1.32zm0-3.072c.304 0 .56-.112.768-.336.224-.224.336-.496.336-.816v-5.688c0-.512-.08-.888-.24-1.128-.144-.24-.432-.36-.864-.36s-.72.12-.864.36-.216.616-.216 1.128v5.688c0 .32.104.592.312.816s.464.336.768.336zm15.2159 9.48c-1.44 0-2.568-.44-3.384-1.32-.8-.896-1.2-2.096-1.2-3.6v-4.272c0-1.6.376-2.816 1.128-3.648.768-.832 1.92-1.248 3.456-1.248 1.52 0 2.664.424 3.432 1.272.768.832 1.152 2.04 1.152 3.624v4.272c0 1.504-.408 2.704-1.224 3.6-.8.88-1.92 1.32-3.36 1.32zm0-3.072c.304 0 .56-.112.768-.336s.312-.496.312-.816v-5.712c0-.512-.072-.888-.216-1.128s-.432-.36-.864-.36-.728.128-.888.384c-.144.24-.216.608-.216 1.104v5.712c0 .32.104.592.312.816.224.224.488.336.792.336z" fill="#1c1c1c"/><path d="m54.832 258.112c-.272.336-.656.608-1.152.816-.48.208-.944.312-1.392.312v-3.288c.704-.112 1.4-.392 2.088-.84.704-.448 1.208-1.032 1.512-1.752h3.312v20.64h-4.368zm6.4813 18.648.768-2.76h-1.488v-3.504h4.368v3.384l-1.176 2.88zm10.2319-2.568c-1.744 0-3.088-.488-4.032-1.464-.944-.992-1.416-2.4-1.416-4.224v-9.312c0-1.952.456-3.44 1.368-4.464s2.272-1.536 4.08-1.536c1.824 0 3.192.512 4.104 1.536s1.368 2.512 1.368 4.464v9.312c0 1.84-.472 3.248-1.416 4.224s-2.296 1.464-4.056 1.464zm0-3.792c.304 0 .552-.136.744-.408.192-.288.288-.624.288-1.008v-10.176c0-.592-.072-1.04-.216-1.344-.128-.32-.4-.48-.816-.48s-.688.16-.816.48c-.128.304-.192.752-.192 1.344v10.176c0 .384.088.72.264 1.008.192.272.44.408.744.408zm11.8594 3.792c-1.744 0-3.088-.488-4.032-1.464-.944-.992-1.416-2.4-1.416-4.224v-9.312c0-1.952.456-3.44 1.368-4.464s2.272-1.536 4.08-1.536c1.824 0 3.192.512 4.104 1.536s1.368 2.512 1.368 4.464v9.312c0 1.84-.472 3.248-1.416 4.224s-2.296 1.464-4.056 1.464zm0-3.792c.304 0 .552-.136.744-.408.192-.288.288-.624.288-1.008v-10.176c0-.592-.072-1.04-.216-1.344-.128-.32-.4-.48-.816-.48s-.688.16-.816.48c-.128.304-.192.752-.192 1.344v10.176c0 .384.088.72.264 1.008.192.272.44.408.744.408zm11.8593 3.792c-1.744 0-3.088-.488-4.032-1.464-.944-.992-1.416-2.4-1.416-4.224v-9.312c0-1.952.456-3.44 1.368-4.464s2.272-1.536 4.08-1.536c1.824 0 3.192.512 4.104 1.536.9121 1.024 1.3681 2.512 1.3681 4.464v9.312c0 1.84-.472 3.248-1.4161 4.224-.944.976-2.296 1.464-4.056 1.464zm0-3.792c.304 0 .552-.136.744-.408.192-.288.288-.624.288-1.008v-10.176c0-.592-.072-1.04-.216-1.344-.128-.32-.4-.48-.816-.48s-.688.16-.816.48c-.128.304-.192.752-.192 1.344v10.176c0 .384.088.72.264 1.008.192.272.44.408.744.408zm13.6591 3.6 6.336-20.712h3.792l-6.336 20.712zm-2.664-6.192c-1.44 0-2.56-.44-3.36-1.32s-1.2-2.08-1.2-3.6v-4.248c0-1.584.376-2.792 1.128-3.624.768-.848 1.912-1.272 3.432-1.272 1.536 0 2.688.424 3.456 1.272.768.832 1.152 2.04 1.152 3.624v4.248c0 1.52-.408 2.72-1.224 3.6-.8.88-1.928 1.32-3.384 1.32zm0-3.072c.304 0 .56-.112.768-.336.224-.224.336-.496.336-.816v-5.688c0-.512-.08-.888-.24-1.128-.144-.24-.432-.36-.864-.36s-.72.12-.864.36-.216.616-.216 1.128v5.688c0 .32.104.592.312.816s.464.336.768.336zm15.216 9.48c-1.44 0-2.568-.44-3.384-1.32-.8-.896-1.2-2.096-1.2-3.6v-4.272c0-1.6.376-2.816 1.128-3.648.768-.832 1.92-1.248 3.456-1.248 1.52 0 2.664.424 3.432 1.272.768.832 1.152 2.04 1.152 3.624v4.272c0 1.504-.408 2.704-1.224 3.6-.8.88-1.92 1.32-3.36 1.32zm0-3.072c.304 0 .56-.112.768-.336s.312-.496.312-.816v-5.712c0-.512-.072-.888-.216-1.128s-.432-.36-.864-.36-.728.128-.888.384c-.144.24-.216.608-.216 1.104v5.712c0 .32.104.592.312.816.224.224.488.336.792.336z" fill="#1c1c1c"/><path d="m54.832 123.112c-.272.336-.656.608-1.152.816-.48.208-.944.312-1.392.312v-3.288c.704-.112 1.4-.392 2.088-.84.704-.448 1.208-1.032 1.512-1.752h3.312v20.64h-4.368zm6.4813 18.648.768-2.76h-1.488v-3.504h4.368v3.384l-1.176 2.88zm10.2319-2.472c-1.648 0-2.96-.4-3.936-1.2-.976-.816-1.464-2.016-1.464-3.6v-3.048h4.296v1.752c0 .704.072 1.256.216 1.656s.44.6.888.6c.416 0 .696-.136.84-.408.16-.272.24-.672.24-1.2v-4.056c0-.656-.072-1.176-.216-1.56-.128-.4-.408-.6-.84-.6-.784 0-1.176.568-1.176 1.704h-3.768v-10.968h9.816v3.864h-5.904v2.904c.208-.272.488-.496.84-.672s.752-.264 1.2-.264c1.728 0 2.904.608 3.528 1.824.64 1.216.96 2.936.96 5.16 0 1.84-.136 3.336-.408 4.488-.256 1.136-.784 2.024-1.584 2.664s-1.976.96-3.528.96zm11.8594-.096c-1.744 0-3.088-.488-4.032-1.464-.944-.992-1.416-2.4-1.416-4.224v-9.312c0-1.952.456-3.44 1.368-4.464s2.272-1.536 4.08-1.536c1.824 0 3.192.512 4.104 1.536s1.368 2.512 1.368 4.464v9.312c0 1.84-.472 3.248-1.416 4.224s-2.296 1.464-4.056 1.464zm0-3.792c.304 0 .552-.136.744-.408.192-.288.288-.624.288-1.008v-10.176c0-.592-.072-1.04-.216-1.344-.128-.32-.4-.48-.816-.48s-.688.16-.816.48c-.128.304-.192.752-.192 1.344v10.176c0 .384.088.72.264 1.008.192.272.44.408.744.408zm11.8593 3.792c-1.744 0-3.088-.488-4.032-1.464-.944-.992-1.416-2.4-1.416-4.224v-9.312c0-1.952.456-3.44 1.368-4.464s2.272-1.536 4.08-1.536c1.824 0 3.192.512 4.104 1.536.9121 1.024 1.3681 2.512 1.3681 4.464v9.312c0 1.84-.472 3.248-1.4161 4.224-.944.976-2.296 1.464-4.056 1.464zm0-3.792c.304 0 .552-.136.744-.408.192-.288.288-.624.288-1.008v-10.176c0-.592-.072-1.04-.216-1.344-.128-.32-.4-.48-.816-.48s-.688.16-.816.48c-.128.304-.192.752-.192 1.344v10.176c0 .384.088.72.264 1.008.192.272.44.408.744.408zm13.6591 3.6 6.336-20.712h3.792l-6.336 20.712zm-2.664-6.192c-1.44 0-2.56-.44-3.36-1.32s-1.2-2.08-1.2-3.6v-4.248c0-1.584.376-2.792 1.128-3.624.768-.848 1.912-1.272 3.432-1.272 1.536 0 2.688.424 3.456 1.272.768.832 1.152 2.04 1.152 3.624v4.248c0 1.52-.408 2.72-1.224 3.6-.8.88-1.928 1.32-3.384 1.32zm0-3.072c.304 0 .56-.112.768-.336.224-.224.336-.496.336-.816v-5.688c0-.512-.08-.888-.24-1.128-.144-.24-.432-.36-.864-.36s-.72.12-.864.36-.216.616-.216 1.128v5.688c0 .32.104.592.312.816s.464.336.768.336zm15.216 9.48c-1.44 0-2.568-.44-3.384-1.32-.8-.896-1.2-2.096-1.2-3.6v-4.272c0-1.6.376-2.816 1.128-3.648.768-.832 1.92-1.248 3.456-1.248 1.52 0 2.664.424 3.432 1.272.768.832 1.152 2.04 1.152 3.624v4.272c0 1.504-.408 2.704-1.224 3.6-.8.88-1.92 1.32-3.36 1.32zm0-3.072c.304 0 .56-.112.768-.336s.312-.496.312-.816v-5.712c0-.512-.072-.888-.216-1.128s-.432-.36-.864-.36-.728.128-.888.384c-.144.24-.216.608-.216 1.104v5.712c0 .32.104.592.312.816.224.224.488.336.792.336z" fill="#1c1c1c"/></svg>