<svg fill="none" height="210" viewBox="0 0 375 210" width="375" xmlns="http://www.w3.org/2000/svg"><path d="m0 181.807-.707107-.707-1.707103 1.707h2.41421 374.869 1v-1-104.6757-.8816l-.875-.1105-.125.9921c.125-.9921.125-.9922.125-.9922l-.001-.0002-.003-.0003-.01-.0012-.032-.0038c-.027-.0031-.066-.0075-.116-.0127-.099-.0104-.243-.0242-.425-.0388-.365-.0292-.887-.0615-1.524-.0753-1.271-.0275-3.018.0186-4.908.3166-3.734.5887-8.284 2.206-10.602 6.4808-3.997 7.3688-12.74 11.5739-20.902 7.3102-.988-.5165-1.829-1.0039-2.588-1.4438l-.191-.1111c-.796-.4612-1.533-.883-2.231-1.1935-.707-.3148-1.424-.5384-2.194-.5771-.78-.0391-1.552.114-2.369.4627-1.577.6735-3.405 2.1185-5.94 4.4696-2.36 2.1888-5.424 5.2535-9.574 9.4048-.35.35-.708.708-1.074 1.075-4.605 4.604-8.511 6.491-11.937 7.034-3.442.546-6.539-.239-9.612-1.258-.534-.177-1.072-.363-1.614-.551-2.5-.866-5.071-1.757-7.659-1.874-3.275-.149-6.551.918-10.001 4.368-3.177 3.177-6.009 4.821-8.62 5.706-2.626.89-5.086 1.035-7.607 1.133-.167.007-.334.013-.501.019-2.339.088-4.771.179-7.264.913-2.709.796-5.448 2.333-8.339 5.326-2.686 2.781-5.093 4.226-7.387 5.042-2.318.824-4.569 1.026-7.047 1.248-2.456.221-5.11.46-8.031 1.422-2.934.967-6.097 2.647-9.655 5.701-6.579 5.648-13.454 5.227-21.494 4.735l-.037-.002c-8.027-.492-17.041-1.012-27.141 5.115-4.793 2.908-8.529 3.911-11.619 4.018-3.101.108-5.643-.68-8.114-1.525-.188-.064-.376-.129-.565-.194-2.245-.775-4.545-1.569-7.037-1.487-2.773.092-5.661 1.248-9.055 4.268-6.236 5.55-12.14 5.562-17.398 4.987-.681-.075-1.365-.162-2.044-.248-1.9009-.241-3.7659-.478-5.4442-.428-2.3607.07-4.5608.703-6.3384 2.707-1.4578 1.644-2.8094 2.589-4.0377 3.136-1.2267.546-2.3819.718-3.4847.748-.5566.015-1.0973-.006-1.638-.033-.0997-.005-.2002-.01-.3013-.016-.4344-.023-.8781-.046-1.3002-.05-1.0419-.008-2.1626.096-3.1674.752-.0853.055-.2922.128-.7688.062-.4691-.066-1.0601-.247-1.7852-.526-.6011-.231-1.2476-.511-1.9497-.814-.1391-.06-.2805-.121-.4241-.183-.8569-.369-1.7792-.758-2.7272-1.097-1.8777-.67-3.968-1.186-5.9927-.907-2.0908.287-4.0035 1.407-5.4934 3.769-1.3043 2.067-2.8913 4.073-4.58 5.714-1.6979 1.651-3.4494 2.885-5.0752 3.481-1.6041.588-2.9971.531-4.1645-.241-1.2117-.801-2.3865-2.502-3.2083-5.663-.4319-1.661-.8744-2.883-1.3576-3.706-.4617-.787-1.143-1.504-2.1284-1.472-.8803.028-1.5472.666-1.9922 1.197-.4889.582-.9656 1.353-1.4248 2.144-.2119.366-.4223.738-.6328 1.111-.7406 1.311-1.4832 2.627-2.3053 3.642-.5207.643-1.0067 1.077-1.4555 1.302-.4094.204-.7887.239-1.2177.073-1.3203-.51-2.4652-1.253-3.5688-2.034-.2131-.151-.428-.306-.6441-.462-.8633-.623-1.7469-1.26-2.6236-1.712-1.1394-.588-2.4001-.942-3.8277-.619-1.3953.316-2.7889 1.242-4.2957 2.852-2.8716 3.067-5.84269 6.136-8.09698 8.44-1.12687 1.151-2.07403 2.111-2.739314 2.782-.33262989.336-.594764.599-.77363.779l-.204242.205-.052282.052-.013157.013-.003268.004h-.000797l-.000189.001z" fill="#00d49c" stroke="#00d49c" stroke-width="2"/><path d="m375 182.807h1v-1-17.795-1.029l-1.029.029.029 1c-.029-1-.03-1-.03-1h-.002-.003l-.008.001-.02.001c-.016 0-.036.001-.061.003-.05.004-.117.009-.203.019-.173.019-.418.053-.74.114-.644.121-1.592.35-2.868.781-2.55.861-6.411 2.531-11.761 5.767-2.564 1.552-4.085 1.751-5.022 1.54-.924-.207-1.559-.869-2.231-1.818-.111-.157-.235-.339-.363-.529-.214-.315-.441-.65-.648-.923-.355-.469-.796-.97-1.377-1.3-.621-.355-1.338-.479-2.144-.295-.765.175-1.568.616-2.443 1.299-3.247 2.532-6.414 4.577-9.3 5.585-2.867 1.002-5.302.935-7.295-.504-1.01-.73-1.873-1.902-2.698-3.211-.222-.353-.447-.726-.672-1.1-.556-.922-1.116-1.851-1.66-2.513-.39-.476-.876-.953-1.48-1.194-.683-.272-1.398-.198-2.058.216-.6.376-1.133 1.015-1.64 1.838-.516.838-1.057 1.955-1.64 3.388-.56 1.376-1.057 2.364-1.502 3.057-.45.701-.81 1.045-1.074 1.207-.23.141-.409.161-.605.127-.239-.04-.538-.17-.952-.421-.253-.153-.477-.304-.727-.472-.195-.131-.406-.273-.658-.434-.52-.333-1.119-.682-1.797-.937-1.409-.53-3.066-.617-5.029.365-1.579.789-2.671.939-3.474.856-.812-.083-1.448-.411-2.145-.823-.07-.041-.143-.085-.218-.13-.608-.366-1.378-.83-2.259-.955-1.094-.157-2.201.198-3.448 1.152-.743.569-1.411 1.116-2 1.598-.297.244-.575.471-.832.676-.795.636-1.426 1.087-2.041 1.378-1.11.523-2.334.605-4.738-.381-1.763-.723-2.429-1.663-3.077-2.58-.178-.25-.354-.499-.55-.74-.493-.606-1.159-1.166-2.252-1.189-.953-.02-2.101.38-3.591 1.142-1.472.752-2.682 1.551-3.746 2.253-.042.028-.083.055-.124.082-1.112.734-2.035 1.331-3 1.74-1.808.765-3.905.925-7.723-.703-.148-.063-.294-.125-.439-.187-3.706-1.581-6.55-2.794-9.205-2.981-2.888-.204-5.451.794-8.638 3.303-1.366 1.075-2.412 1.266-3.266 1.155-.925-.12-1.78-.605-2.767-1.219-.073-.045-.147-.092-.223-.139-.858-.538-1.892-1.186-2.997-1.361-1.364-.216-2.669.28-3.949 1.673-.955 1.039-2.459 1.878-4.281 2.534-1.807.652-3.84 1.093-5.766 1.39-1.923.296-3.713.445-5.024.52-.655.037-1.188.055-1.556.064-.184.005-.326.007-.422.008-.048.001-.084.001-.108.001l-.026.001h-.005-.002v1 1h.001.001z" fill="#ff9466" stroke="#ff9466" stroke-width="2"/><path d="m30.128 204.128c-.9387 0-1.68-.16-2.224-.48s-.928-.8-1.152-1.44-.336-1.472-.336-2.496v-3.712c0-1.419.0853-2.533.256-3.344.1813-.821.544-1.445 1.088-1.872.544-.437 1.36-.656 2.448-.656.5973 0 1.1467.101 1.648.304s.9013.507 1.2.912.448.896.448 1.472v1.488h-2.656v-.288c0-.469-.0427-.832-.128-1.088-.0747-.256-.2613-.384-.56-.384s-.512.08-.64.24c-.1173.16-.176.405-.176.736v2.768c.128-.256.3253-.453.592-.592.2667-.149.5813-.224.944-.224.7467 0 1.3227.149 1.728.448.416.299.704.741.864 1.328s.24 1.355.24 2.304c0 1.461-.2773 2.592-.832 3.392-.5547.789-1.472 1.184-2.752 1.184zm-.096-2.528c.288 0 .4693-.112.544-.336.0853-.235.128-.613.128-1.136v-1.104c0-.747-.2133-1.12-.64-1.12-.48 0-.72.325-.72.976v1.696c0 .683.2293 1.024.688 1.024zm7.8263 2.528c-1.1627 0-2.0587-.325-2.688-.976-.6294-.661-.944-1.6-.944-2.816v-6.208c0-1.301.304-2.293.912-2.976s1.5146-1.024 2.72-1.024c1.216 0 2.128.341 2.736 1.024s.912 1.675.912 2.976v6.208c0 1.227-.3147 2.165-.944 2.816-.6294.651-1.5307.976-2.704.976zm0-2.528c.2026 0 .368-.091.496-.272.128-.192.192-.416.192-.672v-6.784c0-.395-.048-.693-.144-.896-.0854-.213-.2667-.32-.544-.32-.2774 0-.4587.107-.544.32-.0854.203-.128.501-.128.896v6.784c0 .256.0586.48.176.672.128.181.2933.272.496.272z" fill="#000"/><g fill="#1c1c1c"><path d="m29.952 155.192c-1.0987 0-1.9733-.267-2.624-.8-.6507-.544-.976-1.344-.976-2.4v-2.032h2.864v1.168c0 .469.048.837.144 1.104s.2933.4.592.4c.2773 0 .464-.091.56-.272.1067-.181.16-.448.16-.8v-2.704c0-.437-.048-.784-.144-1.04-.0853-.267-.272-.4-.56-.4-.5227 0-.784.379-.784 1.136h-2.512v-7.312h6.544v2.576h-3.936v1.936c.1387-.181.3253-.331.56-.448s.5013-.176.8-.176c1.152 0 1.936.405 2.352 1.216.4267.811.64 1.957.64 3.44 0 1.227-.0907 2.224-.272 2.992-.1707.757-.5227 1.349-1.056 1.776s-1.3173.64-2.352.64zm7.9063-.064c-1.1627 0-2.0587-.325-2.688-.976-.6294-.661-.944-1.6-.944-2.816v-6.208c0-1.301.304-2.293.912-2.976s1.5146-1.024 2.72-1.024c1.216 0 2.128.341 2.736 1.024s.912 1.675.912 2.976v6.208c0 1.227-.3147 2.165-.944 2.816-.6294.651-1.5307.976-2.704.976zm0-2.528c.2026 0 .368-.091.496-.272.128-.192.192-.416.192-.672v-6.784c0-.395-.048-.693-.144-.896-.0854-.213-.2667-.32-.544-.32-.2774 0-.4587.107-.544.32-.0854.203-.128.501-.128.896v6.784c0 .256.0586.48.176.672.128.181.2933.272.496.272zm7.9062 2.528c-1.1627 0-2.0587-.325-2.688-.976-.6293-.661-.944-1.6-.944-2.816v-6.208c0-1.301.304-2.293.912-2.976s1.5147-1.024 2.72-1.024c1.216 0 2.128.341 2.736 1.024s.912 1.675.912 2.976v6.208c0 1.227-.3147 2.165-.944 2.816s-1.5307.976-2.704.976zm0-2.528c.2027 0 .368-.091.496-.272.128-.192.192-.416.192-.672v-6.784c0-.395-.048-.693-.144-.896-.0853-.213-.2667-.32-.544-.32s-.4587.107-.544.32c-.0853.203-.128.501-.128.896v6.784c0 .256.0587.48.176.672.128.181.2933.272.496.272zm9.1063 2.4 4.224-13.808h2.528l-4.224 13.808zm-1.776-4.128c-.96 0-1.7067-.293-2.24-.88-.5334-.587-.8-1.387-.8-2.4v-2.832c0-1.056.2506-1.861.752-2.416.512-.565 1.2746-.848 2.288-.848 1.024 0 1.792.283 2.304.848.512.555.768 1.36.768 2.416v2.832c0 1.013-.272 1.813-.816 2.4-.5334.587-1.2854.88-2.256.88zm0-2.048c.2026 0 .3733-.075.512-.224.1493-.149.2239-.331.2239-.544v-3.792c0-.341-.0533-.592-.1599-.752-.096-.16-.288-.24-.576-.24s-.48.08-.576.24-.144.411-.144.752v3.792c0 .213.0693.395.208.544.1386.149.3093.224.512.224zm10.144 6.32c-.96 0-1.712-.293-2.256-.88-.5334-.597-.8-1.397-.8-2.4v-2.848c0-1.067.2506-1.877.752-2.432.512-.555 1.28-.832 2.304-.832 1.0133 0 1.776.283 2.288.848.512.555.768 1.36.768 2.416v2.848c0 1.003-.272 1.803-.816 2.4-.5334.587-1.28.88-2.24.88zm0-2.048c.2026 0 .3733-.075.512-.224.1386-.149.208-.331.208-.544v-3.808c0-.341-.048-.592-.144-.752s-.288-.24-.576-.24-.4854.085-.592.256c-.096.16-.144.405-.144.736v3.808c0 .213.0693.395.208.544.1493.149.3253.224.528.224z"/><path d="m27.888 104.408c-.1813.224-.4373.405-.768.544-.32.139-.6293.208-.928.208v-2.192c.4693-.075.9333-.261 1.392-.56.4693-.299.8053-.688 1.008-1.168h2.208v13.76h-2.912zm4.3209 12.432.512-1.84h-.992v-2.336h2.912v2.256l-.784 1.92zm6.8212-1.712c-1.1626 0-2.0586-.325-2.688-.976-.6293-.661-.944-1.6-.944-2.816v-6.208c0-1.301.304-2.293.912-2.976s1.5147-1.024 2.72-1.024c1.216 0 2.128.341 2.736 1.024s.912 1.675.912 2.976v6.208c0 1.227-.3146 2.165-.944 2.816-.6293.651-1.5306.976-2.704.976zm0-2.528c.2027 0 .368-.091.496-.272.128-.192.192-.416.192-.672v-6.784c0-.395-.048-.693-.144-.896-.0853-.213-.2666-.32-.544-.32-.2773 0-.4586.107-.544.32-.0853.203-.128.501-.128.896v6.784c0 .256.0587.48.176.672.128.181.2934.272.496.272zm7.9063 2.528c-1.1627 0-2.0587-.325-2.688-.976-.6294-.661-.944-1.6-.944-2.816v-6.208c0-1.301.304-2.293.912-2.976s1.5146-1.024 2.72-1.024c1.216 0 2.128.341 2.736 1.024s.912 1.675.912 2.976v6.208c0 1.227-.3147 2.165-.944 2.816-.6294.651-1.5307.976-2.704.976zm0-2.528c.2026 0 .368-.091.496-.272.128-.192.192-.416.192-.672v-6.784c0-.395-.048-.693-.144-.896-.0854-.213-.2667-.32-.544-.32-.2774 0-.4587.107-.544.32-.0854.203-.128.501-.128.896v6.784c0 .256.0586.48.176.672.128.181.2933.272.496.272zm7.9062 2.528c-1.1626 0-2.0586-.325-2.688-.976-.6293-.661-.944-1.6-.944-2.816v-6.208c0-1.301.304-2.293.912-2.976s1.5147-1.024 2.72-1.024c1.216 0 2.128.341 2.736 1.024s.912 1.675.912 2.976v6.208c0 1.227-.3146 2.165-.944 2.816-.6293.651-1.5306.976-2.704.976zm0-2.528c.2027 0 .368-.091.496-.272.128-.192.192-.416.192-.672v-6.784c0-.395-.048-.693-.144-.896-.0853-.213-.2666-.32-.544-.32-.2773 0-.4586.107-.544.32-.0853.203-.128.501-.128.896v6.784c0 .256.0587.48.176.672.128.181.2934.272.496.272zm9.1063 2.4 4.224-13.808h2.528l-4.224 13.808zm-1.776-4.128c-.96 0-1.7067-.293-2.24-.88-.5334-.587-.8-1.387-.8-2.4v-2.832c0-1.056.2506-1.861.752-2.416.512-.565 1.2746-.848 2.288-.848 1.024 0 1.792.283 2.304.848.512.555.768 1.36.768 2.416v2.832c0 1.013-.272 1.813-.816 2.4-.5334.587-1.2854.88-2.256.88zm0-2.048c.2026 0 .3733-.075.512-.224.1493-.149.224-.331.224-.544v-3.792c0-.341-.0534-.592-.16-.752-.096-.16-.288-.24-.576-.24s-.48.08-.576.24-.144.411-.144.752v3.792c0 .213.0693.395.208.544.1386.149.3093.224.512.224zm10.144 6.32c-.96 0-1.712-.293-2.256-.88-.5334-.597-.8-1.397-.8-2.4v-2.848c0-1.067.2506-1.877.752-2.432.512-.555 1.28-.832 2.304-.832 1.0133 0 1.776.283 2.288.848.512.555.768 1.36.768 2.416v2.848c0 1.003-.272 1.803-.816 2.4-.5334.587-1.28.88-2.24.88zm0-2.048c.2026 0 .3733-.075.512-.224.1386-.149.208-.331.208-.544v-3.808c0-.341-.048-.592-.144-.752s-.288-.24-.576-.24-.4854.085-.592.256c-.096.16-.144.405-.144.736v3.808c0 .213.0693.395.208.544.1493.149.3253.224.528.224z"/><path d="m27.888 64.408c-.1813.224-.4373.4053-.768.544-.32.1387-.6293.208-.928.208v-2.192c.4693-.0747.9333-.2613 1.392-.56.4693-.2987.8053-.688 1.008-1.168h2.208v13.76h-2.912zm4.3209 12.432.512-1.84h-.992v-2.336h2.912v2.256l-.784 1.92zm6.8212-1.648c-1.0986 0-1.9733-.2667-2.624-.8-.6506-.544-.976-1.344-.976-2.4v-2.032h2.864v1.168c0 .4693.048.8373.144 1.104s.2934.4.592.4c.2774 0 .464-.0907.56-.272.1067-.1813.16-.448.16-.8v-2.704c0-.4373-.048-.784-.144-1.04-.0853-.2667-.272-.4-.56-.4-.5226 0-.784.3787-.784 1.136h-2.512v-7.312h6.544v2.576h-3.936v1.936c.1387-.1813.3254-.3307.56-.448.2347-.1173.5014-.176.8-.176 1.152 0 1.936.4053 2.352 1.216.4267.8107.64 1.9573.64 3.44 0 1.2267-.0906 2.224-.272 2.992-.1706.7573-.5226 1.3493-1.056 1.776-.5333.4267-1.3173.64-2.352.64zm7.9063-.064c-1.1627 0-2.0587-.3253-2.688-.976-.6294-.6613-.944-1.6-.944-2.816v-6.208c0-1.3013.304-2.2933.912-2.976s1.5146-1.024 2.72-1.024c1.216 0 2.128.3413 2.736 1.024s.912 1.6747.912 2.976v6.208c0 1.2267-.3147 2.1653-.944 2.816-.6294.6507-1.5307.976-2.704.976zm0-2.528c.2026 0 .368-.0907.496-.272.128-.192.192-.416.192-.672v-6.784c0-.3947-.048-.6933-.144-.896-.0854-.2133-.2667-.32-.544-.32-.2774 0-.4587.1067-.544.32-.0854.2027-.128.5013-.128.896v6.784c0 .256.0586.48.176.672.128.1813.2933.272.496.272zm7.9062 2.528c-1.1626 0-2.0586-.3253-2.688-.976-.6293-.6613-.944-1.6-.944-2.816v-6.208c0-1.3013.304-2.2933.912-2.976s1.5147-1.024 2.72-1.024c1.216 0 2.128.3413 2.736 1.024s.912 1.6747.912 2.976v6.208c0 1.2267-.3146 2.1653-.944 2.816-.6293.6507-1.5306.976-2.704.976zm0-2.528c.2027 0 .368-.0907.496-.272.128-.192.192-.416.192-.672v-6.784c0-.3947-.048-.6933-.144-.896-.0853-.2133-.2666-.32-.544-.32-.2773 0-.4586.1067-.544.32-.0853.2027-.128.5013-.128.896v6.784c0 .256.0587.48.176.672.128.1813.2934.272.496.272zm9.1063 2.4 4.224-13.808h2.528l-4.224 13.808zm-1.776-4.128c-.96 0-1.7067-.2933-2.24-.88-.5334-.5867-.8-1.3867-.8-2.4v-2.832c0-1.056.2506-1.8613.752-2.416.512-.5653 1.2746-.848 2.288-.848 1.024 0 1.792.2827 2.304.848.512.5547.768 1.36.768 2.416v2.832c0 1.0133-.272 1.8133-.816 2.4-.5334.5867-1.2854.88-2.256.88zm0-2.048c.2026 0 .3733-.0747.512-.224.1493-.1493.224-.3307.224-.544v-3.792c0-.3413-.0534-.592-.16-.752-.096-.16-.288-.24-.576-.24s-.48.08-.576.24-.144.4107-.144.752v3.792c0 .2133.0693.3947.208.544.1386.1493.3093.224.512.224zm10.144 6.32c-.96 0-1.712-.2933-2.256-.88-.5334-.5973-.8-1.3973-.8-2.4v-2.848c0-1.0667.2506-1.8773.752-2.432.512-.5547 1.28-.832 2.304-.832 1.0133 0 1.776.2827 2.288.848.512.5547.768 1.36.768 2.416v2.848c0 1.0027-.272 1.8027-.816 2.4-.5334.5867-1.28.88-2.24.88zm0-2.048c.2026 0 .3733-.0747.512-.224.1386-.1493.208-.3307.208-.544v-3.808c0-.3413-.048-.592-.144-.752s-.288-.24-.576-.24-.4854.0853-.592.256c-.096.16-.144.4053-.144.736v3.808c0 .2133.0693.3947.208.544.1493.1493.3253.224.528.224z"/></g><path d="m205.904 204.128c-.597 0-1.147-.101-1.648-.304-.491-.213-.885-.523-1.184-.928s-.448-.896-.448-1.472v-1.472h2.64v.272c0 .459.043.821.128 1.088s.272.4.56.4c.299 0 .507-.08.624-.24.128-.171.192-.421.192-.752v-2.752c-.128.245-.325.443-.592.592s-.581.224-.944.224c-.747 0-1.328-.149-1.744-.448-.405-.299-.688-.741-.848-1.328s-.24-1.36-.24-2.32c0-1.461.277-2.587.832-3.376s1.472-1.184 2.752-1.184c.939 0 1.68.16 2.224.48s.928.8 1.152 1.44.336 1.472.336 2.496v3.712c0 1.419-.085 2.539-.256 3.36-.171.811-.528 1.435-1.072 1.872-.544.427-1.365.64-2.464.64zm.144-7.776c.48 0 .72-.325.72-.976v-1.712c0-.672-.229-1.008-.688-1.008-.288 0-.475.117-.56.352-.075.224-.112.592-.112 1.104v1.12c0 .747.213 1.12.64 1.12zm7.967 7.776c-1.163 0-2.059-.325-2.688-.976-.63-.661-.944-1.6-.944-2.816v-6.208c0-1.301.304-2.293.912-2.976s1.514-1.024 2.72-1.024c1.216 0 2.128.341 2.736 1.024s.912 1.675.912 2.976v6.208c0 1.227-.315 2.165-.944 2.816-.63.651-1.531.976-2.704.976zm0-2.528c.202 0 .368-.091.496-.272.128-.192.192-.416.192-.672v-6.784c0-.395-.048-.693-.144-.896-.086-.213-.267-.32-.544-.32-.278 0-.459.107-.544.32-.086.203-.128.501-.128.896v6.784c0 .256.058.48.176.672.128.181.293.272.496.272z" fill="#000"/><path d="m334.888 193.408c-.181.224-.437.405-.768.544-.32.139-.629.208-.928.208v-2.192c.469-.075.933-.261 1.392-.56.469-.299.805-.688 1.008-1.168h2.208v13.76h-2.912zm7.361 10.736c-1.259 0-2.176-.357-2.752-1.072-.565-.715-.848-1.771-.848-3.168v-.912c0-.725.085-1.301.256-1.728.181-.427.491-.747.928-.96-.416-.171-.715-.453-.896-.848s-.272-.901-.272-1.52v-.368c0-1.195.299-2.075.896-2.64.608-.565 1.504-.848 2.688-.848 1.205 0 2.101.288 2.688.864.597.576.896 1.488.896 2.736 0 .704-.085 1.275-.256 1.712-.171.427-.475.736-.912.928.491.235.811.603.96 1.104.149.491.224 1.2.224 2.128 0 .181-.005.299-.016.352 0 1.397-.283 2.453-.848 3.168s-1.477 1.072-2.736 1.072zm0-9.008c.48 0 .72-.437.72-1.312 0-.341-.059-.629-.176-.864-.107-.235-.288-.352-.544-.352s-.443.117-.56.352c-.107.235-.16.523-.16.864 0 .875.24 1.312.72 1.312zm0 6.288c.501 0 .752-.453.752-1.36l-.016-.688c0-.523-.043-.944-.128-1.264s-.288-.48-.608-.48c-.267 0-.459.144-.576.432-.117.277-.176.624-.176 1.04 0 .181.005.315.016.4v.128l-.016.432c0 .907.251 1.36.752 1.36z" fill="#000"/><rect fill="#f1f1f1" height="34" rx="4" stroke="#1c1c1c" stroke-width="2" width="151" x="25" y="1"/><path d="m54.608 11.256h4.224c.672 0 1.1893.1547 1.552.464.3733.2987.624.7253.752 1.28.128.544.192 1.2427.192 2.096 0 .7787-.1013 1.3867-.304 1.824s-.5547.7413-1.056.912c.416.0853.7147.2933.896.624.192.3307.288.7787.288 1.344l-.032 5.2h-2.688v-5.376c0-.384-.0747-.6293-.224-.736s-.4213-.16-.816-.16v6.272h-2.784zm3.456 5.088c.384 0 .576-.416.576-1.248 0-.3627-.016-.6347-.048-.816s-.0907-.304-.176-.368c-.0853-.0747-.208-.112-.368-.112h-.64v2.544zm7.529 8.784c-2.336 0-3.504-1.2107-3.504-3.632v-4.704c0-1.1093.3093-1.9893.928-2.64.6293-.6613 1.488-.992 2.576-.992s1.9413.3307 2.56.992c.6293.6507.944 1.5307.944 2.64v4.704c0 2.4213-1.168 3.632-3.504 3.632zm0-2.16c.224 0 .3893-.08.496-.24s.16-.3787.16-.656v-5.728c0-.6827-.2187-1.024-.656-1.024s-.656.3413-.656 1.024v5.728c0 .2773.0533.496.16.656s.272.24.496.24zm4.5451 2.032v-13.824h2.848v13.824zm7.2488.128c-1.2054 0-2.0694-.3307-2.592-.992-.5227-.6613-.784-1.648-.784-2.96v-4.704c0-1.0773.3093-1.8987.928-2.464.6186-.5653 1.4826-.848 2.592-.848 2.2506 0 3.376 1.104 3.376 3.312v.848c0 .8533-.0107 1.5467-.032 2.08h-4.064v2.272c0 .4053.0426.7253.128.96.0853.224.2666.336.544.336.2133 0 .3626-.064.448-.192.096-.128.1493-.272.16-.432.0213-.1707.032-.416.032-.736v-1.136h2.784v.672c0 1.3653-.2667 2.3733-.8 3.024-.5227.64-1.4294.96-2.72.96zm.736-7.12v-1.504c0-.8427-.208-1.264-.624-1.264-.4694 0-.704.4213-.704 1.264v1.504zm10.5165 6.992h-2.8l-1.184-3.296-1.12 3.296h-2.112l2.144-6.288-1.952-5.44h2.848l1.008 2.848.992-2.848h2.08l-2.016 5.792zm7.6857.128c-1.248 0-2.1493-.3093-2.704-.928-.5546-.6187-.832-1.616-.832-2.992v-1.344h2.704v1.712c0 .6827.2187 1.024.656 1.024.2454 0 .416-.0693.512-.208.096-.1493.144-.3947.144-.736 0-.448-.0533-.816-.16-1.104-.1066-.2987-.2453-.544-.416-.736-.16-.2027-.4533-.512-.88-.928l-1.184-1.184c-.9173-.896-1.376-1.888-1.376-2.976 0-1.1733.2667-2.064.8-2.672.544-.6187 1.3334-.928 2.368-.928 1.2374 0 2.128.3307 2.672.992.544.6507.816 1.6747.816 3.072h-2.8l-.016-.944c0-.1813-.0533-.3253-.16-.432-.096-.1067-.2346-.16-.416-.16-.2133 0-.3733.0587-.48.176-.1066.1173-.16.2773-.16.48 0 .448.256.912.768 1.392l1.6 1.536c.3734.3627.6827.7093.928 1.04.2454.32.4427.704.592 1.152.1494.4373.224.96.224 1.568 0 1.3547-.2506 2.384-.752 3.088-.4906.6933-1.3066 1.04-2.448 1.04zm6.3189 0c-.875 0-1.477-.2613-1.808-.784-.32-.5227-.48-1.3013-.48-2.336v-8.72h2.816v8.16.608c0 .32.048.5493.144.688.107.128.267.192.48.192.288 0 .469-.1173.544-.352.075-.2453.112-.592.112-1.04v-.096l.016-8.16h2.784v11.712h-2.8v-1.248c-.192.4907-.416.8427-.672 1.056s-.635.32-1.136.32zm10.257 0c-.768 0-1.318-.4587-1.648-1.376v1.248h-2.88v-13.824h2.88v2.672c.448-.4587.97-.688 1.568-.688.906 0 1.557.272 1.952.816.394.5333.592 1.3067.592 2.32v5.648c0 .96-.203 1.7333-.608 2.32-.406.576-1.024.864-1.856.864zm-.944-2.176c.192 0 .325-.0587.4-.176.085-.128.133-.2827.144-.464.021-.192.032-.4853.032-.88v-4.88c0-.416-.038-.7253-.112-.928-.075-.2027-.235-.304-.48-.304-.267 0-.448.1013-.544.304s-.144.5013-.144.896v4.912c0 .512.042.896.128 1.152.085.2453.277.368.576.368zm4.431-9.664h2.736v1.36c.128-.5013.347-.8747.656-1.12s.747-.368 1.312-.368c.459 0 .853.1067 1.184.32.341.2027.581.4853.72.848.235-.4053.496-.6987.784-.88.288-.192.688-.288 1.2-.288.917 0 1.552.2827 1.904.848.363.5547.544 1.3653.544 2.432l-.032 8.56h-2.816v-8.608c0-.7573-.192-1.136-.576-1.136-.267 0-.459.1333-.576.4-.117.256-.176.5653-.176.928v8.416h-2.8v-8.608c0-.3307-.037-.5973-.112-.8-.064-.2027-.208-.304-.432-.304-.288 0-.491.144-.608.432-.117.2773-.176.6133-.176 1.008v8.272h-2.736zm14.253 11.84c-.907 0-1.531-.2987-1.872-.896-.331-.608-.496-1.472-.496-2.592 0-.9173.117-1.6213.352-2.112.245-.4907.581-.848 1.008-1.072.427-.2347 1.077-.4907 1.952-.768l.768-.256v-.032-1.168c0-.3093-.064-.544-.192-.704-.117-.1707-.261-.256-.432-.256-.149 0-.283.0693-.4.208-.107.1387-.16.3253-.16.56v.704h-2.72v-.384c0-1.152.267-1.9733.8-2.464.544-.4907 1.424-.736 2.64-.736.971 0 1.76.256 2.368.768.608.5013.912 1.216.912 2.144v8.928h-2.784v-1.392c-.139.48-.363.8533-.672 1.12-.299.2667-.656.4-1.072.4zm1.104-2.176c.213 0 .363-.0853.448-.256.096-.1813.144-.4.144-.656v-3.264c-.416.16-.725.3627-.928.608-.192.2453-.288.5867-.288 1.024v1.504c0 .6933.208 1.04.624 1.04zm4.503-9.664h2.8v1.296c.138-.4587.378-.8107.72-1.056.352-.256.784-.384 1.296-.384v2.336c-.395 0-.832.0587-1.312.176-.47.1067-.704.2347-.704.384v8.96h-2.8zm5.484-.784v-1.952h2.8v1.952zm0 12.496v-11.712h2.8v11.712zm3.906-11.712h2.8v1.488c.117-.48.32-.8693.608-1.168s.672-.448 1.152-.448c.789 0 1.371.2453 1.744.736.384.48.576 1.168.576 2.064v9.04h-2.752v-8.752c0-.256-.053-.4747-.16-.656-.096-.1813-.251-.272-.464-.272-.288 0-.48.1333-.576.4-.085.256-.128.6027-.128 1.04v8.24h-2.8zm11.265 11.84c-1.206 0-2.07-.3307-2.592-.992-.523-.6613-.784-1.648-.784-2.96v-4.704c0-1.0773.309-1.8987.928-2.464.618-.5653 1.482-.848 2.592-.848 2.25 0 3.376 1.104 3.376 3.312v.848c0 .8533-.011 1.5467-.032 2.08h-4.064v2.272c0 .4053.042.7253.128.96.085.224.266.336.544.336.213 0 .362-.064.448-.192.096-.128.149-.272.16-.432.021-.1707.032-.416.032-.736v-1.136h2.784v.672c0 1.3653-.267 2.3733-.8 3.024-.523.64-1.43.96-2.72.96zm.736-7.12v-1.504c0-.8427-.208-1.264-.624-1.264-.47 0-.704.4213-.704 1.264v1.504zm3.796-4.72h2.8v1.296c.139-.4587.379-.8107.72-1.056.352-.256.784-.384 1.296-.384v2.336c-.395 0-.832.0587-1.312.176-.469.1067-.704.2347-.704.384v8.96h-2.8z" fill="#1c1c1c"/><circle cx="42" cy="19" fill="#00d49c" r="8"/><rect fill="#f1f1f1" height="34" rx="4" stroke="#1c1c1c" stroke-width="2" width="81" x="188" y="2"/><path d="m220.808 27.128c-1.003 0-1.808-.3147-2.416-.944-.597-.6293-.896-1.4933-.896-2.592v-6.336c0-1.3653.272-2.3947.816-3.088s1.397-1.04 2.56-1.04c1.013 0 1.829.2773 2.448.832s.928 1.3547.928 2.4v2.368h-2.736v-2.032c0-.3947-.048-.6667-.144-.816s-.261-.224-.496-.224c-.245 0-.416.0853-.512.256-.085.1707-.128.4213-.128.752v6.896c0 .3627.053.6293.16.8.107.16.267.24.48.24.427 0 .64-.3467.64-1.04v-2.48h2.768v2.592c0 2.304-1.157 3.456-3.472 3.456zm4.01-.128 1.328-13.744h4.656l1.312 13.744h-2.608l-.192-2.224h-1.664l-.16 2.224zm3.04-4.416h1.248l-.608-6.992h-.128zm8.294 4.544c-1.003 0-1.808-.3147-2.416-.944-.598-.6293-.896-1.4933-.896-2.592v-6.336c0-1.3653.272-2.3947.816-3.088s1.397-1.04 2.56-1.04c1.013 0 1.829.2773 2.448.832.618.5547.928 1.3547.928 2.4v2.368h-2.736v-2.032c0-.3947-.048-.6667-.144-.816s-.262-.224-.496-.224c-.246 0-.416.0853-.512.256-.086.1707-.128.4213-.128.752v6.896c0 .3627.053.6293.16.8.106.16.266.24.48.24.426 0 .64-.3467.64-1.04v-2.48h2.768v2.592c0 2.304-1.158 3.456-3.472 3.456zm11.744-.128v-2.176h-4.08v-2.144l2.592-9.44h4.288v9.296h.736v2.288h-.736v2.176zm-1.632-4.464h1.632v-6.928zm9.266 4.592c-1.163 0-2.059-.3253-2.688-.976-.629-.6613-.944-1.6-.944-2.816v-6.208c0-1.3013.304-2.2933.912-2.976s1.515-1.024 2.72-1.024c1.216 0 2.128.3413 2.736 1.024s.912 1.6747.912 2.976v6.208c0 1.2267-.315 2.1653-.944 2.816s-1.531.976-2.704.976zm0-2.528c.203 0 .368-.0907.496-.272.128-.192.192-.416.192-.672v-6.784c0-.3947-.048-.6933-.144-.896-.085-.2133-.267-.32-.544-.32s-.459.1067-.544.32c-.085.2027-.128.5013-.128.896v6.784c0 .256.059.48.176.672.128.1813.293.272.496.272z" fill="#1c1c1c"/><ellipse cx="204.8" cy="20" fill="#ff9466" rx="7.9" ry="8"/></svg>