<svg fill="none" height="52" viewBox="0 0 52 52" width="52" xmlns="http://www.w3.org/2000/svg"><circle cx="26" cy="26" fill="#fff" opacity=".3" r="25" stroke="#d9d9d9" stroke-width=".5"/><g fill="#000"><path d="m25.6468 10h.7066v.6649h-.7066zm0 31.3351h.7066v.6649h-.7066zm16.6466-15.6676h.7066v.6651h-.7066zm-33.2934 0h.70646v.6651h-.70646zm28.2702-10.7471.4997-.4704.4997.4704-.4997.4702zm-23.5408 22.1577.4996-.4702.4994.4702-.4994.4701zm23.5415.0018.4996-.47.4996.47-.4996.4702zm-23.5417-22.1583.4998-.4702.4996.4703-.4998.4703zm18.1889-3.2127.2709-.6142.6526.255-.2709.6142zm-12.7613 28.9403.2707-.6141.6528.2548-.2708.6142zm21.758-8.4635.2707-.6142.6528.255-.2711.6142zm-30.7513-12.0118.2707-.6142.6526.2546-.2707.6144zm30.7601-.3392.6531-.254.27.6145-.6531.254zm-30.7686 11.9704.653-.254.2698.6144-.6527.2541zm21.7441 8.4916.6528-.254.2698.6144-.6527.2542zm-12.7201-28.9558.6531-.254.2699.6147-.6532.254z"/><path d="m20.2714 32.9083h6.3286v1.3459 1.3459h-6.3286-2.8714v-19.2h2.8714z"/><path d="m34.6 28.9252h-2.9251v2.8841c0 .9889-.9893 1.4558-2.0332 1.4558-1.0728 0-2.1167-.4669-2.1167-1.4558l-.0835-11.9484c0-.9614 1.0439-1.4283 2.1167-1.4283 1.0439 0 2.1167.4669 2.1167 1.4283v3.2686h2.9251v-2.8566c0-2.9116-2.5771-3.873-5.0418-3.873-2.4936 0-4.9582.9614-4.9582 3.873l.0835 10.9596c0 1.8838 1.0317 3.1582 2.4355 3.8232.7659.3628 1.6425.5442 2.5227.5442 2.4647 0 4.9583-1.4558 4.9583-4.3674z"/></g></svg>