<svg fill="none" height="29" viewBox="0 0 16 29" width="16" xmlns="http://www.w3.org/2000/svg"><g fill="#f1f1f1"><path d="m6.93335 18.5601h2.13272c1.52353 0 3.14473-1.2548 3.19953-2.8937v-5.3306h-4.14295v-1.66039h4.14295v-1.16066h-4.14295v-1.66038h4.14295v-1.29335h-4.14295v-1.66087h4.09045c-.2707-1.59979-1.6239-2.90015-3.14749-2.90015h-2.13272c-1.70498 0-3.20047 1.62633-3.20047 3.47998v11.60012c.00046 1.8536 1.49595 3.48 3.20093 3.48z"/><path d="m14.9387 9.86612c-.5852 0-1.0604.51628-1.0604 1.15418h-.0119v4.0593c0 2.829-2.1977 5.2205-4.80004 5.2205h-2.13272c-2.6019 0-4.80046-2.391-4.80046-5.2205v-4.0593h-.01197c0-.6374-.47471-1.15418-1.06084-1.15418-.585204 0-1.06037.51628-1.06037 1.15418v4.0593c0 4.0868 3.17468 7.5403 6.93364 7.5403v4.0593h-4.53387v.0155c-.57554.0125-1.03919.5222-1.03919 1.1511 0 .6299.46365 1.1382 1.03919 1.1512v.003h11.20003v-.005c.5658-.0245 1.0189-.5273 1.0189-1.1492 0-.6208-.4531-1.1236-1.0189-1.1491v-.0175h-4.53344v-4.0593c3.75804 0 6.93364-3.453 6.93364-7.5403v-4.0593c0-.6379-.4747-1.15418-1.0613-1.15418z"/></g></svg>