<svg fill="none" height="36" viewBox="0 0 36 36" width="36" xmlns="http://www.w3.org/2000/svg"><g fill="#f1f1f1"><path d="m16.9001 16.2401h1.1997c.857 0 1.7689-.6923 1.7997-1.5966v-2.941h-2.3304v-.9161h2.3304v-.6403h-2.3304v-.9161h2.3304v-.71358h-2.3304v-.91634h2.3009c-.1523-.88264-.9135-1.60008-1.7705-1.60008h-1.1996c-.9591 0-1.8003.89729-1.8003 1.91999v6.40011c.0003 1.0226.8415 1.92 1.8005 1.92z"/><path d="m21.403 11.4434c-.3292 0-.5965.2848-.5965.6367h-.0067v2.2397c0 1.5608-1.2362 2.8802-2.7 2.8802h-1.1996c-1.4636 0-2.7003-1.3191-2.7003-2.8802v-2.2397h-.0067c0-.3516-.267-.6367-.5967-.6367-.3292 0-.5965.2848-.5965.6367v2.2397c0 2.2547 1.7858 4.1601 3.9002 4.1601v2.2396h-2.5503v.0086c-.3238.0069-.5846.2881-.5846.6351 0 .3475.2608.628.5846.6351v.0017h6.3v-.0028c.3183-.0135.5731-.2909.5731-.634 0-.3425-.2548-.6199-.5731-.634v-.0097h-2.5501v-2.2396c2.1139 0 3.9002-1.9051 3.9002-4.1601v-2.2397c0-.3519-.267-.6367-.597-.6367z"/></g></svg>