<svg fill="none" height="68" viewBox="0 0 68 68" width="68" xmlns="http://www.w3.org/2000/svg"><path d="m40.869 33.4848c-4.5512 0-8.2425 3.6913-8.2425 8.2425s3.6913 8.2424 8.2425 8.2424 8.2424-3.6912 8.2424-8.2424-3.6912-8.2425-8.2424-8.2425zm.6868 11.6411v.7226h-.6868v-.6855c-.7116-.0124-1.4466-.1813-2.0606-.4987l.3132-1.1292c.6566.2555 1.5303.5262 2.2144.3709.7886-.1786.9507-.9904.0783-1.3806-.6388-.2981-2.595-.5522-2.595-2.2282 0-.9355.7144-1.7749 2.0497-1.9576v-.7335h.6868v.6992c.4973.0137 1.0551.1003 1.6774.2885l-.2487 1.1319c-.5275-.1854-1.11-.353-1.6787-.3187-1.0221.0591-1.1127.9452-.3984 1.3161 1.1759.5522 2.709.9616 2.709 2.4356.0014 1.1787-.9231 1.8065-2.0606 1.9672zm2.231-13.9833c1.555-.3063 2.97-.8599 3.9508-1.6443v.8956c0 .6855-.5302 1.312-1.3833 1.8244-.7981-.463-1.6595-.8243-2.5675-1.0757zm-2.9178-7.9608c3.672 0 6.8686-1.3833 6.8686-3.0909 0-1.7075-3.1966-3.0909-6.8686-3.0909-3.6707 0-6.8687 1.3834-6.8687 3.0909 0 1.7076 3.198 3.0909 6.8687 3.0909zm.1277-2.7598c-.4107-.1237-1.6677-.2281-1.6677-.9273 0-.3901.4588-.7377 1.316-.8146v-.3064h.441v.2899c.3215.0069.6786.0412 1.077.1236l-.1593.4699c-.3036-.0701-.6416-.136-.9726-.136l-.099.0013c-.6621.0275-.7157.3943-.2582.5481.7514.2322 1.7405.4012 1.7405 1.0166 0 .4904-.5962.7528-1.3284.8188v.3022h-.441v-.2858c-.4505-.0041-.9286-.0769-1.3215-.2088l.2019-.4712c.3352.0866.7583.1731 1.1375.1731l.2857-.0192c.5069-.0728.6086-.4121.0481-.5742zm-15.2389 17.8709c1.9851 0 3.8122-.4135 5.0897-1.055.4273-.9479.9809-1.8257 1.6458-2.6087-.6196-1.4328-3.4879-2.5181-6.7355-2.5181-3.6706 0-6.8686 1.3834-6.8686 3.0909 0 1.7076 3.198 3.0909 6.8686 3.0909zm.1278-2.7598c-.4107-.1236-1.6677-.2281-1.6677-.9273 0-.3901.4602-.7377 1.316-.8146v-.3064h.441v.2899c.3215.0069.6786.0412 1.077.1236l-.1607.4699c-.3022-.0701-.6402-.136-.9713-.136l-.0989.0013c-.6621.0275-.7143.3943-.2582.5482.7514.2321 1.7405.4011 1.7405 1.0165 0 .4904-.5962.7528-1.3284.8188v.3022h-.441v-.2857c-.4519-.0042-.9286-.077-1.3215-.2089l.2019-.4711c.3352.0865.7583.173 1.1375.173l.2857-.0192c.5056-.0728.6086-.4121.0481-.5742zm5.4991 11.7193c-1.2625.8105-3.3519 1.3436-5.6269 1.3436-3.6706 0-6.8686-1.3834-6.8686-3.0909v-.8957c1.5743 1.2611 4.2709 1.926 6.8686 1.926 1.698 0 3.433-.2899 4.8754-.8394.2102.5413.4616 1.0619.7515 1.5564zm-12.4955-5.1817v-.8943c1.5743 1.2597 4.2709 1.9246 6.8686 1.9246 1.4274 0 2.8767-.2074 4.1597-.5976.0454.6443.147 1.2721.2995 1.8821-1.2199.4766-2.7804.7761-4.4592.7761-3.6706 0-6.8686-1.3833-6.8686-3.0909zm0-3.4343v-.8957c1.5743 1.2611 4.2709 1.926 6.8686 1.926 1.5482 0 3.1253-.2418 4.4867-.6993-.1759.6773-.2885 1.3765-.3311 2.0964-1.1732.4093-2.6142.6635-4.1556.6635-3.6706 0-6.8686-1.3834-6.8686-3.0909zm15.1111-15.1111v-.8957c1.5743 1.2611 4.2709 1.926 6.8687 1.926 2.5991 0 5.2943-.6649 6.8686-1.926v.8957c0 1.7075-3.1966 3.0909-6.8686 3.0909-3.6707 0-6.8687-1.3834-6.8687-3.0909zm0 6.8686v-.8956c.9794.7844 2.3958 1.338 3.9508 1.6443-.908.2514-1.768.6127-2.5661 1.0757-.8545-.5124-1.3847-1.1389-1.3847-1.8244zm0-3.4343v-.8943c1.5743 1.2597 4.2709 1.9246 6.8687 1.9246 2.5991 0 5.2943-.6649 6.8686-1.9246v.8943c0 1.7076-3.1966 3.0909-6.8686 3.0909-3.6707 0-6.8687-1.3833-6.8687-3.0909z" fill="#f1f1f1"/></svg>