<svg fill="none" height="68" viewBox="0 0 68 68" width="68" xmlns="http://www.w3.org/2000/svg"><path clip-rule="evenodd" d="m38.4714 37.4023c.5969 1.7277 2.5802 3.0965 4.7865 2.3523l.0264-.0088c1.9707-.6851 3.0109-2.8233 2.3347-4.794-.2355-.6876-.5352-1.4318-.8752-2.2125h-7.514c.3765 1.7201.787 3.3332 1.2416 4.663zm2.851-11.6255-5.1013 1.7479c.2305 1.3058.4773 2.6482.743 3.9553h7.2105c-.8248-1.768-1.8196-3.7022-2.8522-5.7032zm.6195-1.5438c1.9191 3.7249 3.8861 7.4485 4.8683 10.3095.7531 2.1962-.0566 4.9048-2.5538 6.1377l1.525 4.4439c.3665 1.0225 1.6648 1.1661 3.0122 1.0175l.3173.9255-5.9538 2.0425-.3425-.9923c1.1371-.6031 2.1256-1.53 1.7756-2.5865l-1.5212-4.4326c-2.7226.5528-5.0295-1.0842-5.7876-3.2866-.9961-2.9014-1.7692-7.0091-2.4883-11.1281zm-11.1721 8.5063h-7.514c-.34.7807-.6397 1.5249-.8752 2.2125-.675 1.9707.3639 4.1089 2.3347 4.794l.0264.0088c2.2075.7442 4.1908-.6246 4.7865-2.3523.4558-1.3298.8663-2.9429 1.2416-4.663zm-6.9448-1.2593h7.2105c.2657-1.3071.5125-2.6495.7442-3.9553l-5.1013-1.7479c-1.0338 2.001-2.0286 3.9352-2.8534 5.7032zm9.3814-4.7965c-.719 4.119-1.4922 8.2267-2.4882 11.1281-.7581 2.2024-3.0651 3.8394-5.7876 3.2866l-1.5212 4.4326c-.3501 1.0565.6385 1.9834 1.7756 2.5865l-.3413.9923-5.955-2.0425.3173-.9255c1.3474.1486 2.647.005 3.0122-1.0175l1.5249-4.4439c-2.4971-1.2329-3.3055-3.9415-2.5538-6.1377.9823-2.861 2.9492-6.5846 4.8696-10.3095zm8.9786 9.8361c.5213 0 .9444.4231.9444.9444 0 .5201-.4231.9445-.9444.9445-.5214 0-.9445-.4244-.9445-.9445 0-.5213.4231-.9444.9445-.9444zm-18.2593.3123c0 .5213.4231.9444.9445.9444.5213 0 .9444-.4231.9444-.9444 0-.5201-.4231-.9445-.9444-.9445-.5214 0-.9445.4244-.9445.9445zm4.0926-2.8334c.5213 0 .9444.4244.9444.9445 0 .5213-.4231.9444-.9444.9444s-.9444-.4231-.9444-.9444c0-.5201.4231-.9445.9444-.9445zm13.2222-.6283c.5214 0 .9445.4231.9445.9457 0 .52-.4231.9444-.9445.9444-.5213 0-.9444-.4244-.9444-.9444 0-.5226.4231-.9457.9444-.9457zm-6.6098-10.0452v-3.8067c0-.3488-.2808-.6296-.6297-.6296-.3463 0-.6283.2808-.6283.6296v3.8067c0 .3476.282.6297.6283.6297.3489 0 .6297-.2821.6297-.6297zm2.4329.5818 2.0664-3.5133c.1788-.2997.0781-.6863-.2216-.8626-.301-.175-.6851-.0781-.8614.2229l-2.0689 3.5133c-.1763.2997-.0756.6863.2216.8626.1007.0592.2103.0869.3199.0869.2166 0 .4268-.1108.544-.3098zm-5.7322.3098c-.2153 0-.4244-.1108-.544-.3098l-2.0677-3.5133c-.1763-.2997-.0768-.6863.2229-.8626.2984-.1763.685-.0768.8626.2229l2.069 3.5133c.175.2997.0768.6863-.2242.8626-.1007.0592-.209.0869-.3186.0869z" fill="#1c1c1c" fill-rule="evenodd"/></svg>