<svg fill="none" height="68" viewBox="0 0 68 68" width="68" xmlns="http://www.w3.org/2000/svg"><path d="m18.8887 26.4443v15.1111h30.2222v-15.1111zm27.7037 12.5926h-25.1852v-10.074h25.1852zm-18.6534-5.0975-.2733-.7794-.8286.3148v-.8916h-.8097v.8891l-.8059-.3136-.2733.7795.8324.2808-.5314.7039.6762.4937.5012-.738.5301.7367.6649-.4936-.5301-.7027zm5.037 0-.2733-.7794-.8285.3148v-.8916h-.8098v.8891l-.8059-.3136-.2732.7795.8323.2808-.5314.7039.6763.4937.5011-.738.5302.7367.6649-.4936-.5302-.7027zm5.037 0-.2732-.7794-.8286.3148v-.8916h-.8097v.8891l-.8059-.3136-.2733.7795.8324.2808-.5314.7039.6762.4937.5012-.738.5301.7367.6649-.4936-.5301-.7027zm5.0371 0-.2733-.7794-.8286.3148v-.8916h-.8097v.8891l-.8059-.3136-.2733.7795.8324.2808-.5314.7039.6762.4937.5012-.738.5302.7367.6648-.4936-.5301-.7027z" fill="#1c1c1c"/></svg>