<svg fill="none" height="52" viewBox="0 0 52 52" width="52" xmlns="http://www.w3.org/2000/svg"><circle cx="26" cy="26" fill="#fff" opacity=".3" r="25" stroke="#d9d9d9"/><g fill="#211e1e"><path d="m11.3677 30.2504h-1.94129l-.39309 1.0332h-.56225l1.70123-4.3305h.522l1.6723 4.3305h-.6074zm-1.76245-.4697h1.58525l-.7894-2.0826z"/><path d="m6.67224 27.415v1.566h.75879s.13695-.0047.20622-.0047c.23038 0 .38344-.0501.52843-.1846.1466-.1376.21104-.3611.21104-.5959 0-.2349-.06442-.4357-.21266-.6009-.14983-.1652-.43013-.1797-.47848-.1797-.04992 0-.07576 0-.07576 0zm-.54614-.4599h1.48378c.22392 0 .62185.0518.89089.2721.37054.3028.4366.6963.4366.9603s-.06442.6186-.32222.8729c-.3367.332-.68952.3822-1.18412.3822h-.75879v1.8413h-.54614z"/><path d="m26.7629 26.9531h.5462v1.8592h1.9348v-1.8592h.5462v4.3305h-.5462v-1.9936h-1.9348v1.9936h-.5462z"/><path d="m30.755 26.9531h.5462v4.3288h-.5462z"/><path d="m32.2404 26.9531h.5461v3.8511h1.8656v.4794h-2.4117z"/><path d="m14.9006 26.9531v.4794h-1.313v3.8511h-.5462v-3.8511h-1.3146v-.4794z"/><path d="m17.8056 26.9531-.2723.4794h-1.6287v1.3555h1.5224v.4793h-1.5224v1.5369h1.5933l.2722.4794h-2.4117v-4.3305z"/><path d="m18.938 28.9838 1.8527-2.0324.6815.0012-1.4194 1.5433 1.45 2.7871h-.6219l-1.2034-2.3854-.7395.8v1.5854h-.5462v-4.3304h.5462z"/><path d="m23.8726 27.415v1.566h.7588s.1369-.0047.2062-.0047c.232 0 .385-.0501.5284-.1846.1466-.1376.211-.3611.211-.5959 0-.2349-.0644-.4357-.2142-.6009-.1482-.1652-.4286-.1797-.4785-.1797-.0483 0-.0741 0-.0741 0zm-.5462-.4599h1.4838c.2239 0 .6235.0518.8925.2721.3689.3028.435.6963.435.9603s-.0644.6186-.3222.8729c-.3367.332-.6896.3822-1.1841.3822h-.7588v1.8413h-.5462z"/><path d="m35.1127 26.9531h.5445v4.3288h-.5445z"/><path d="m37.1298 27.415v1.566h.7588s.1353-.0047.2062-.0047c.2304 0 .3834-.0501.5268-.1846.1482-.1376.211-.3611.211-.5959 0-.2349-.0629-.4357-.2126-.6009-.1498-.1652-.4302-.1797-.4785-.1797s-.0741 0-.0741 0zm-.5462-.4599h1.4838c.2255 0 .6219.0518.8909.2721.3705.3028.4366.6963.4366.9603s-.0644.6186-.3222.8729c-.3367.332-.6911.3822-1.1841.3822h-.7588v1.8413h-.5462z"/><path d="m40.5421 27.415v1.566h.7588s.1354-.0047.2062-.0047c.2304 0 .3835-.0501.5268-.1846.1483-.1376.2127-.3611.2127-.5959 0-.2349-.0644-.4357-.2143-.6009-.1498-.1652-.4285-.1797-.4784-.1797-.0483 0-.0742 0-.0742 0zm-.5461-.4599h1.4837c.224 0 .6219.0518.891.2721.3705.3028.4366.6963.4366.9603s-.0645.6186-.3223.8729c-.3367.332-.6895.3822-1.1841.3822h-.7588v1.8413h-.5461z"/><path d="m45.8744 26.9531-.2722.4794h-1.6288v1.3555h1.5224v.4793h-1.5224v1.5369h1.5949l.2707.4794h-2.4118v-4.3305z"/><path d="m27.1881 36.4691h1.1583l.1982.3482h-1.7544v-3.1466h2.1378l.9103 2.6041.9456-2.6041h.4076l-1.1873 3.1466h-.3802l-1.0101-2.8001h-1.4258v.9863h1.1068v.3498h-1.1068z"/><path d="m23.5152 33.6707-.1966.3465h-1.1857v.9879h1.1068v.3466h-1.1068v1.1174h1.1599l.1966.3482h-1.7528v-3.1466z"/><path d="m25.7608 33.6868h.3786v3.1466h-.4043l-1.4194-2.5717v2.5717h-.3786v-3.1466h.5156l1.3081 2.3741z"/><path d="m33.3182 33.6707-.1982.3465h-1.1857v.9879h1.1084v.3466h-1.1084v1.1174h1.1599l.1966.3482h-1.7528v-3.1466z"/><path d="m21.1515 35.2073v1.1417c-.2578.2462-.5848.5248-1.2325.5248-.7265 0-1.3838-.6187-1.3838-1.5985 0-.9295.6186-1.6615 1.4676-1.6615.6895 0 1.0295.4275 1.1584.6186l-.2852.2688s-.2884-.5506-.8732-.5506c-.5751 0-1.031.5182-1.031 1.3442 0 .7822.4897 1.2421 1.0117 1.2421.4543 0 .7588-.3077.7797-.3304v-.6559h-.9521v-.3433z"/></g><path d="m25.8009 20.0298h-1.9235c-.311 0-.6251.1911-.6251.447 0 .0924.0741.2672.3318.2672.3319 0 .6171-.345.9135-.345.261 0 .298.2413.298.2413-.1562-.0035-.2126.0036-.4059.1004-.1837.0891-.427.311-.5881.4859s-.4221.4-.7346.4c-.3142 0-.6219-.2025-.6219-.5685 0-.4842.3851-.6397.3851-.8162 0-.0518-.0242-.1198-.1257-.1198-.1563 0-.4608.2283-.7556.2283-.4043 0-.7555-.4567-.7555-.4567s.3512-.4567.7555-.4567c.2948 0 .5993.2284.7556.2284.1015 0 .1257-.0681.1257-.1215 0-.1733-.3851-.3303-.3851-.8146 0-.366.3077-.5684.6219-.5684.3125 0 .5735.2251.7346.4s.4044.3968.5881.4859c.1933.0971.2497.1036.4059.1003 0 0-.037.2413-.298.2413-.2964 0-.5816-.3449-.9135-.3449-.2577 0-.3318.1749-.3318.2672 0 .2575.3141.447.6251.447h1.9235v-1.9337c0-.3126-.1901-.6267-.4446-.6267-.0918 0-.2658.0728-.2658.3336 0 .332.3431.6202.3431.9182 0 .2608-.24.298-.24.298.0035-.1571-.0035-.2122-.0999-.4081-.0886-.183-.3093-.4275-.4833-.5911-.174-.162-.3979-.4243-.3979-.7385 0-.3158.2014-.6251.5655-.6251.4817 0 .6379.3887.8119.3887.0516 0 .1192-.026.1192-.128 0-.157-.2271-.4631-.2271-.7595 0-.4065.4543-.7595.4543-.7595s.4543.353.4543.7595c0 .2964-.2271.6025-.2271.7595 0 .102.0676.128.1192.128.174 0 .3302-.3887.8119-.3887.3641 0 .5655.3093.5655.6251 0 .3142-.2239.5765-.3979.7385-.174.1636-.3947.4081-.4849.5911-.0951.1959-.1015.251-.0984.4081 0 0-.24-.0372-.24-.298 0-.298.3431-.5862.3431-.9182 0-.2608-.1739-.3336-.2658-.3336-.2545 0-.4446.3141-.4446.6267v1.9337h1.9236c.3093 0 .6234-.1895.6234-.447 0-.0924-.0725-.2672-.3318-.2672-.3303 0-.6171.3449-.9135.3449-.261 0-.2964-.2413-.2964-.2413.1562.0035.2126-.0035.406-.1003.182-.0891.4253-.311.5864-.4859.1627-.1749.4237-.4.7362-.4.3142 0 .6219.2024.6219.5684 0 .4843-.3867.6413-.3867.8146 0 .0535.0242.1215.1273.1215.1563 0 .4608-.2284.7556-.2284.4043 0 .7556.4567.7556.4567s-.3513.4567-.7556.4567c-.2948 0-.5993-.2283-.7556-.2283-.1031 0-.1273.068-.1273.1198 0 .1765.3867.332.3867.8162 0 .366-.3077.5685-.6219.5685-.3125 0-.5735-.2251-.7362-.4-.1611-.1749-.4044-.3968-.5864-.4859-.1934-.0972-.2498-.1036-.406-.1004 0 0 .0354-.2413.2964-.2413.2964 0 .5832.345.9135.345.2593 0 .3318-.1749.3318-.2672 0-.2559-.3141-.447-.6234-.447h-1.9236v1.9337c0 .3125.1901.6267.4446.6267.0919 0 .2658-.0729.2658-.332 0-.3336-.3431-.6219-.3431-.9199 0-.2607.24-.2979.24-.2979-.0035.157.0036.2137.0984.4081.0902.183.3109.4291.4849.5911.174.1619.3979.4243.3979.7401 0 .3142-.2014.6235-.5655.6235-.4817 0-.6379-.3871-.8119-.3871-.0516 0-.1192.0243-.1192.1263 0 .1571.2271.4632.2271.7596 0 .4064-.4543.7595-.4543.7595s-.4543-.3531-.4543-.7595c0-.2964.2271-.6025.2271-.7596 0-.102-.0676-.1263-.1192-.1263-.174 0-.3302.3871-.8119.3871-.3641 0-.5655-.3093-.5655-.6235 0-.3158.2239-.5782.3979-.7401.174-.162.3947-.4081.4833-.5911.0967-.1944.1031-.2511.0999-.4081 0 0 .24.0372.24.2979 0 .298-.3431.5863-.3431.9199 0 .2591.174.332.2658.332.2545 0 .4446-.3142.4446-.6267z" fill="#b09145"/></svg>