<svg fill="none" height="52" viewBox="0 0 52 52" width="52" xmlns="http://www.w3.org/2000/svg"><g fill="#fff"><circle cx="26" cy="26" opacity=".75" r="25" stroke="#026139"/><path d="m21.5547 19.6868c.0544 0 .1097-.0089.1609-.0208l1.8455 6.2716h.0016c.205.6998 1.2242 1.2315 2.4509 1.2315 1.2274 0 2.2442-.5315 2.4516-1.2315h.0008l1.844-6.2675c.0432.0088.0912.0168.1409.0168.3588 0 .6486-.2898.6486-.6501 0-.3563-.2891-.6478-.6486-.6478-.3571 0-.6485.2907-.6485.6478 0 .2602.1505.4812.3699.5852l-2.1379 4.5821.3428-6.1739h.0143c.3572 0 .6495-.2898.6495-.6478 0-.3579-.2914-.6501-.6495-.6501-.3562 0-.6494.2922-.6494.6501 0 .2955.1993.5429.4684.622l-1.4211 6.0339-.6862-6.6503c.3153-.0464.5557-.3163.5557-.643 0-.3572-.2891-.6486-.6478-.6486-.3595 0-.6494.2907-.6494.6486 0 .3267.2434.5989.558.643l-.6837 6.6375-1.4196-6.0219c.2731-.0768.4749-.3251.4749-.622 0-.3579-.2914-.6502-.6486-.6502-.3594 0-.6501.2923-.6501.6502 0 .3571.2907.6478.6501.6478h.0089l.3435 6.1707-2.1426-4.587c.2098-.1081.3515-.3252.3515-.5782 0-.3562-.2891-.6477-.6495-.6477-.3578 0-.6478.2906-.6478.6477.0002.3619.2892.6519.648.6519zm4.4467 5.7223c1.1226 0 2.0313.2874 2.0313.6397 0 .3539-.9088.6389-2.0313.6389-1.1224 0-2.0321-.2842-2.0321-.6389.0002-.3522.9097-.6397 2.0321-.6397z"/><path d="m18.8363 29.7992c-1.8608 0-3.3693 1.5109-3.3693 3.3228 0 1.8143 1.5085 3.3236 3.3693 3.3236 1.8592 0 3.3668-1.51 3.3668-3.3236 0-1.812-1.5077-3.3228-3.3668-3.3228zm1.3995 5.2427c-.104.1561-.2347.2955-.3876.4075-.249.1993-.5331.3146-.835.3251-.0569.0064-.1169.0128-.1769.0128-.0624 0-.1209-.0064-.1801-.0128-.3018-.0112-.5836-.1257-.8334-.3251-.1529-.1122-.2842-.2507-.3876-.4075-.3498-.4835-.5692-1.1609-.5692-1.9136 0-.7077.1953-1.3499.5068-1.8215.1753-.3138.4499-.5622.7863-.7077.0025-.0009.0048-.0025.008-.0041.0153-.0064.0313-.0128.0489-.0185.0441-.0184.0896-.0336.1362-.048.1529-.0448.3162-.0696.4844-.0696s.3307.0248.4836.0696c.0472.0144.092.0288.1377.0473.0153.0073.0313.0137.0489.0192.0016.0032.0048.0032.008.0041.3331.1457.6117.3939.7847.7077.3138.4749.5068 1.1161.5068 1.8215-.0013.7527-.2198 1.4308-.5705 1.9136z"/><path d="m28.8749 33.8144h-.466v.9368c-.0143.5612-.4716 1.0128-1.036 1.0128-.0025 0-.0048-.0009-.0064-.0009v.0016h-1.4284-.5405v-5.2633h.9024v-.4684h-.9024-.0992-2.2523v.4684h.9032v5.2636h-.9032v.4692h5.3629.3971.0369.032v-.0016h.0048v-1.531h-.0048v-.8872z"/><path d="m35.9913 30.0345h-.0057-.0313-1.4435-4.6519v.4692h.8848v5.2644h-.8848v.4676.0016h4.6519 1.0416.402.0313.0057.0336v-1.5293-.7029h-.4724v.739c-.0048.567-.4668 1.0257-1.036 1.0257-.0032 0-.0041 0-.0057 0h-1.6726-.6269-.0185v-2.5302-.0833h.4701.0121.2618c.4196.0048.7598.346.7598.7655 0 .0073 0 .0128-.0008.0169h.0008v.2442.0985h.4267v-.0624-1.0627-.0041-.3802-.0016-1.0633-.0208h-.4259v.301h-.0009c0 .0057.0009.0121.0009.0169 0 .4203-.3403.7198-.7607.7246h-.2738-.2923-.1778v-2.2242h.0185 1.3363.0201.9527c.5677.0032 1.0265.4604 1.0313 1.0249v.6381h.4724v-.6013-1.5286-.0024h-.033v-.0008z"/><path d="m44.0347 35.7873c-.45-.0112-.5557-.1498-.9032-.5501l-2.0521-2.5541 1.3579-1.6214v.0009c.3642-.4171.4628-.5613.9319-.5685h.2898.0648v-.4532h-.0648-1.3339-.0624-.9792-.0624v.4532h.0624.4868v.0016h.0016c.1185 0 .2137.0936.2137.2114 0 .0472-.0153.0888-.0393.1241l-1.2043 1.4332-.9447-1.1762-.197-.2498c-.0296-.0361-.0496-.0825-.0496-.1321 0-.117.0953-.2114.2121-.213h.5389v-.4531h-.9568-1.3988-.7742v.4531h.149c.3987.0185.5139.1545.8279.5149l1.8167 2.2619-1.6356 1.9519v-.004c-.3659.4187-.4652.5596-.9351.5685h-.2859-.096v.4515h.096 1.5485.0968.8375.0976v-.4515h-.0976-.5612-.0007c-.117 0-.2137-.0944-.2137-.2146 0-.0496.0184-.0953.0489-.1314l1.4524-1.7351 1.2066 1.5046.1842.2289c.0288.0377.0489.0832.0489.133 0 .1177-.096.2146-.2146.2146 0 0 0 0-.0016 0h-.5788v.4515h.0047 3.37v-.4515h-.3019v.0007h-.0002z"/><path d="m14.4046 35.7577-.4099-1.1922c-.1929-.5292-.3283-.7694-.6277-1.0425-.1977-.1769-.4733-.2603-.6782-.3194.763-.1209 1.3443-.7832 1.3443-1.5789 0-.8832-.715-1.5997-1.5981-1.5997-.0088 0-.0184.0016-.0304.0016v-.0016h-2.40516-1.44996-.87201v.4668h.87201v5.2692h-.88639v.4692h2.32356.90395v-.4692h-.89116v-2.5319h.69176c.0224.0009.0432.0016.0648.0032h.1401c.221.008.4132.04.5845.0889.1602.0416.3307.096.4429.1689.1521.0992.3153.237.4588.482.0368.0656.0704.1313.1024.1969.2635.4964.4219 1.1842.5973 2.0569h1.0665v.0016h.96v-.47h-.7039zm-2.8911-2.9993h-1.5109v-2.2701h1.51c.6501.0249 1.1689.4788 1.1689 1.1346 0 .6559-.5186 1.1065-1.168 1.1355z"/></g><path d="m21.5547 18.8863c.0544 0 .1097-.0089.1609-.0209l1.8455 6.2717h.0016c.205.6997 1.2242 1.2315 2.4509 1.2315 1.2274 0 2.2442-.5316 2.4516-1.2315h.0008l1.844-6.2676c.0432.0089.0912.0169.1409.0169.3588 0 .6486-.2898.6486-.6502 0-.3562-.2891-.6477-.6486-.6477-.3571 0-.6485.2906-.6485.6477 0 .2603.1505.4813.3699.5853l-2.1379 4.5821.3428-6.1739h.0143c.3572 0 .6495-.2898.6495-.6478 0-.3579-.2914-.6502-.6495-.6502-.3562 0-.6494.2923-.6494.6502 0 .2955.1993.5429.4684.622l-1.4211 6.034-.6862-6.6503c.3153-.0464.5557-.3163.5557-.643 0-.3572-.2891-.6486-.6478-.6486-.3595 0-.6494.2907-.6494.6486 0 .3267.2434.5989.558.643l-.6837 6.6375-1.4196-6.0219c.2731-.0768.4749-.3251.4749-.622 0-.3579-.2914-.6502-.6486-.6502-.3594 0-.6501.2923-.6501.6502 0 .3571.2907.6477.6501.6477h.0089l.3435 6.1706-2.1426-4.587c.2098-.1081.3515-.3252.3515-.5782 0-.3562-.2891-.6477-.6495-.6477-.3578 0-.6478.2907-.6478.6477.0002.362.2892.652.648.652zm4.4467 5.7223c1.1226 0 2.0313.2874 2.0313.6396 0 .354-.9088.639-2.0313.639-1.1224 0-2.0321-.2842-2.0321-.639.0002-.3522.9097-.6396 2.0321-.6396z" fill="#a2803e"/><path d="m18.8363 28.9985c-1.8608 0-3.3693 1.5109-3.3693 3.3228 0 1.8143 1.5085 3.3236 3.3693 3.3236 1.8592 0 3.3668-1.51 3.3668-3.3236 0-1.8119-1.5077-3.3228-3.3668-3.3228zm1.3995 5.2429c-.104.1561-.2347.2955-.3876.4074-.249.1993-.5331.3147-.835.3252-.0569.0063-.1169.0127-.1769.0127-.0624 0-.1209-.0064-.1801-.0127-.3018-.0112-.5836-.1257-.8334-.3252-.1529-.1121-.2842-.2507-.3876-.4074-.3498-.4836-.5692-1.161-.5692-1.9137 0-.7077.1953-1.3498.5068-1.8214.1753-.3138.4499-.5622.7863-.7078.0025-.0009.0048-.0025.008-.0041.0153-.0064.0313-.0127.0489-.0184.0441-.0185.0896-.0336.1362-.048.1529-.0448.3162-.0697.4844-.0697s.3307.0249.4836.0697c.0472.0144.092.0288.1377.0473.0153.0072.0313.0136.0489.0191.0016.0032.0048.0032.008.0041.3331.1458.6117.394.7847.7078.3138.4748.5068 1.1161.5068 1.8214-.0013.7526-.2198 1.4308-.5705 1.9137z" fill="#026139"/><path d="m28.8749 33.0139h-.466v.9367c-.0143.5613-.4716 1.0128-1.036 1.0128-.0025 0-.0048-.0009-.0064-.0009v.0016h-1.4284-.5405v-5.2633h.9024v-.4684h-.9024-.0992-2.2523v.4684h.9032v5.2637h-.9032v.4692h5.3629.3971.0369.032v-.0016h.0048v-1.531h-.0048v-.8872z" fill="#026139"/><path d="m35.9913 29.234h-.0057-.0313-1.4435-4.6519v.4692h.8848v5.2644h-.8848v.4675.0016h4.6519 1.0416.402.0313.0057.0336v-1.5292-.703h-.4724v.7391c-.0048.5669-.4668 1.0256-1.036 1.0256-.0032 0-.0041 0-.0057 0h-1.6726-.6269-.0185v-2.53-.0832h.4701.0121.2618c.4196.0048.7598.3459.7598.7655 0 .0072 0 .0127-.0008.0168h.0008v.2443.0984h.4267v-.0626-1.0624-.0041-.3803-.0016-1.0633-.0208h-.4259v.301h-.0009c0 .0057.0009.012.0009.0168 0 .4203-.3403.7198-.7607.7246h-.2738-.2923-.1778v-2.2242h.0185 1.3363.0201.9527c.5677.0032 1.0265.4604 1.0313 1.0248v.6381h.4724v-.6012-1.5286-.0025h-.033v-.0007z" fill="#026139"/><path d="m44.0348 34.9866c-.45-.0112-.5557-.1497-.9032-.5501l-2.0521-2.5541 1.3579-1.6213c.3642-.4171.4628-.5604.9319-.5677h.2898.0649v-.4531h-.0649-1.3338-.0625-.9792-.0624v.4531h.0624.4868v.0016h.0016c.1185 0 .2137.0937.2137.2114 0 .0473-.0153.0889-.0393.1241l-1.2043 1.4332-.9447-1.1762-.197-.2498c-.0296-.0361-.0495-.0825-.0495-.1321 0-.1169.0952-.2114.2121-.213h.5388v-.4531h-.9568-1.3988-.7742v.4531h.149c.3987.0185.5139.1546.8279.5149l1.8167 2.2619-1.6357 1.952v-.0041c-.3659.4187-.4652.5597-.9351.5685h-.2859-.096v.4516h.096 1.5485.0968.8376.0975v-.4516h-.0975-.5613c-.1169 0-.2144-.0944-.2144-.2145 0-.0496.0184-.0953.0489-.1314l1.4524-1.7351 1.2066 1.5046.1842.2289c.0288.0377.0489.0832.0489.133 0 .1177-.096.2146-.2146.2146 0 0 0 0-.0016 0h-.5788v.4515h.0047 3.37v-.4515z" fill="#026139"/><path d="m14.4046 34.9572-.4099-1.1922c-.1929-.5293-.3283-.7695-.6277-1.0425-.1977-.1769-.4733-.2603-.6782-.3195.763-.1209 1.3443-.7831 1.3443-1.5788 0-.8832-.715-1.5997-1.5981-1.5997-.0088 0-.0184.0016-.0304.0016v-.0016h-2.40516-1.44996-.87201v.4669h.87201v5.2691h-.88639v.4692h2.32356.90395v-.4693h-.89116v-2.5318h.69176c.0224.0009.0432.0016.0648.0032h.1401c.221.008.4132.04.5845.0889.1602.0416.3307.096.4429.1689.1521.0993.3153.237.4588.482.0368.0656.0704.1314.1024.1969.2635.4964.4219 1.1842.5973 2.0569h1.0665v.0016h.96v-.47h-.7039zm-2.8911-2.9993h-1.5109v-2.2699h1.51c.6501.0248 1.1689.4787 1.1689 1.1346 0 .6558-.5186 1.1065-1.168 1.1353z" fill="#026139"/></svg>