<svg fill="none" height="36" viewBox="0 0 36 36" width="36" xmlns="http://www.w3.org/2000/svg"><path clip-rule="evenodd" d="m22.6667 10c1.8413 0 3.3333 1.4927 3.3333 3.3333v9.3334c0 1.8406-1.492 3.3333-3.3333 3.3333h-9.3334c-1.8406 0-3.3333-1.4927-3.3333-3.3333v-9.3334c0-1.8406 1.4927-3.3333 3.3333-3.3333zm-4.6667 2.6667c-2.9453 0-5.3333 2.388-5.3333 5.3333 0 2.946 2.388 5.3333 5.3333 5.3333s5.3333-2.3873 5.3333-5.3333c0-2.9453-2.388-5.3333-5.3333-5.3333zm2.446 7.6926c-.096.1574-.3007.2067-.4573.1107-1.252-.7653-2.8287-.9387-4.6854-.5147-.1786.0414-.3566-.0706-.398-.25-.0406-.1786.0707-.3566.25-.3973 2.032-.4647 3.7747-.2647 5.1807.594.1567.096.206.3007.11.4573zm.6527-1.452c-.1207.1954-.3767.2567-.572.1367-1.4334-.8813-3.6187-1.136-5.3147-.6213-.22.066-.452-.058-.5187-.2774-.0666-.22.0574-.4513.2774-.5186 1.9366-.5874 4.3446-.3027 5.9913.7086.1953.1207.2567.3767.1367.572zm.056-1.5126c-1.7187-1.0207-4.5547-1.1147-6.196-.6167-.2634.08-.542-.0687-.622-.332-.08-.264.0686-.5427.3326-.6227 1.884-.572 5.0154-.4613 6.9947.7134.2373.1406.3147.4473.1747.684-.1407.2366-.4474.3146-.684.174z" fill="#1c1c1c" fill-rule="evenodd"/></svg>